<svg width="185" height="22" viewBox="0 0 185 22" fill="none" xmlns="http://www.w3.org/2000/svg">
<path fill-rule="evenodd" clip-rule="evenodd" d="M86.1875 22H107.188V0H86.1875V22Z" fill="url(#paint0_radial_1073_2048)"/>
<path fill-rule="evenodd" clip-rule="evenodd" d="M88.0691 9.53526L87.6672 8.51303L87.2678 9.53526H88.0691ZM96.9115 9.12963C96.8321 9.1769 96.7366 9.18205 96.6216 9.18205H95.9088V8.61117H96.6311C96.7342 8.61117 96.8412 8.61521 96.9108 8.65483C96.9857 8.69402 97.0333 8.77351 97.0333 8.88273C97.0333 8.99591 96.9871 9.08417 96.9115 9.12963V9.12963ZM101.993 9.53526L101.589 8.51303L101.187 9.53526H101.993ZM92.5207 10.6439H91.9195L91.916 8.6336L91.0666 10.6439H90.5517L89.6978 8.62913V10.6439H88.5047L88.2802 10.0709H87.0587L86.832 10.6439H86.1945L87.2433 8.07372H88.1159L89.113 10.5087V8.07372H90.0716L90.8382 9.81877L91.5439 8.07372H92.5207V10.6439V10.6439ZM94.916 10.6439H92.9567V8.07372H94.9159V8.61117H93.5447V9.07248H94.8824V9.60083L93.5447 9.59859V10.1119H94.916V10.6439H94.916ZM97.6792 8.76801C97.6792 9.17432 97.4183 9.38908 97.2672 9.45241C97.3952 9.50406 97.504 9.59275 97.555 9.66966C97.6378 9.79496 97.6543 9.91227 97.6543 10.1383V10.6439H97.0626L97.0608 10.3207C97.0608 10.1679 97.0748 9.94518 96.9657 9.82212C96.88 9.73016 96.751 9.71109 96.5391 9.71109H95.9089V10.6439H95.3227V8.07372H96.673C96.971 8.07372 97.1927 8.08403 97.383 8.19833C97.5687 8.31185 97.6792 8.48003 97.6792 8.76809V8.76801ZM98.0202 10.6439H98.6185V8.07337H98.0202V10.6439ZM105.561 10.6439H104.729L103.617 8.7167L103.619 10.6439H102.424L102.195 10.0709H100.975L100.756 10.6439H100.069C99.7834 10.6439 99.4218 10.5772 99.2194 10.3607C99.011 10.1412 98.9056 9.84704 98.9056 9.37842C98.9056 8.99738 98.9696 8.64933 99.2214 8.37416C99.4113 8.16902 99.7076 8.07372 100.112 8.07372H100.679V8.62406H100.125C99.9104 8.62406 99.7884 8.65844 99.6715 8.77755C99.5729 8.886 99.503 9.09036 99.503 9.36046C99.503 9.63632 99.5555 9.83269 99.666 9.96426C99.7541 10.065 99.9188 10.0954 100.074 10.0954H100.337L101.164 8.07372H102.042L103.036 10.5051V8.07363H103.93L104.961 9.86345V8.07363H105.561V10.6438V10.6439ZM86.1875 11.1502H87.1898L87.4158 10.5772H87.9215L88.1467 11.1502H90.1191V10.7128L90.2955 11.1517H91.3176L91.4932 10.7073V11.1502H96.3942L96.3918 10.2126H96.4866C96.5534 10.2142 96.5733 10.2222 96.5733 10.3376V11.1502H99.1064V10.9323C99.311 11.0472 99.6296 11.1502 100.047 11.1502H101.113L101.341 10.5772H101.848L102.073 11.1502H104.126V10.6069L104.438 11.1502H106.082V7.56445H104.454V7.98907L104.227 7.56454H102.554V7.98907L102.344 7.56454H100.086C99.7076 7.56454 99.3743 7.61902 99.1065 7.77362V7.56445H97.5499V7.77362C97.3768 7.61464 97.1442 7.56445 96.8864 7.56445H91.1925L90.8088 8.49172L90.4185 7.56445H88.6255V7.98907L88.4265 7.56454H86.8974L86.1875 9.26773V11.1501V11.1502ZM107.081 13.0468H106.01C105.904 13.0468 105.833 13.0512 105.775 13.0926C105.714 13.1336 105.688 13.1978 105.688 13.2795C105.688 13.3748 105.74 13.4407 105.818 13.4693C105.877 13.492 105.945 13.4978 106.045 13.4994L106.359 13.5077C106.68 13.5173 106.896 13.5744 107.027 13.714C107.049 13.7346 107.064 13.7591 107.081 13.7789V13.0468ZM107.081 14.742C106.937 14.9612 106.66 15.0714 106.284 15.0714H105.15V14.5189H106.28C106.39 14.5189 106.469 14.5032 106.518 14.4552C106.557 14.4175 106.588 14.3592 106.588 14.2885C106.588 14.2127 106.557 14.1526 106.516 14.1181C106.471 14.0775 106.41 14.061 106.309 14.0595C105.758 14.0416 105.071 14.0775 105.071 13.2644C105.071 12.8919 105.298 12.4995 105.912 12.4995H107.081V11.988H105.995C105.667 11.988 105.429 12.0693 105.26 12.1991V11.988H103.653C103.399 11.988 103.098 12.055 102.953 12.1991L102.955 11.988H100.087V12.1991C99.8588 12.0265 99.4748 11.988 99.2948 11.988H97.4058V12.1991C97.2243 12.0152 96.825 11.988 96.5791 11.988H94.4618L93.9782 12.539L93.5245 11.988H90.3619V15.5759H93.4654L93.9648 15.0183L94.4352 15.576L96.3453 15.5774V14.7336H96.5346C96.7868 14.7373 97.0882 14.7278 97.3519 14.6083V15.576H98.9288V14.6406H99.0047C99.1019 14.6406 99.1117 14.6465 99.1117 14.7472V15.576H103.904C104.206 15.576 104.523 15.4943 104.701 15.3477V15.576H106.221C106.538 15.576 106.845 15.5302 107.081 15.4118V14.742V14.742ZM104.741 13.7141C104.855 13.8387 104.916 13.9958 104.916 14.2592C104.916 14.8139 104.586 15.0714 103.995 15.0714H102.851V14.5189H103.99C104.103 14.5189 104.181 14.5032 104.232 14.4552C104.253 14.4338 104.271 14.4079 104.282 14.3792C104.294 14.3505 104.3 14.3196 104.299 14.2885C104.299 14.2127 104.268 14.1526 104.228 14.1181C104.182 14.0775 104.121 14.061 104.019 14.0595C103.469 14.0416 102.784 14.0775 102.784 13.2644C102.784 12.8919 103.008 12.4995 103.62 12.4995H104.798V13.0468H103.724C103.616 13.0468 103.545 13.0512 103.486 13.0926C103.423 13.1336 103.399 13.1978 103.399 13.2795C103.399 13.3748 103.454 13.4407 103.528 13.4693C103.588 13.492 103.653 13.4978 103.754 13.4994L104.07 13.5077C104.391 13.5173 104.607 13.5744 104.741 13.714V13.7141ZM99.4474 13.5564C99.3705 13.6037 99.2722 13.6085 99.1593 13.6085H98.4462V13.0326H99.1687C99.2722 13.0326 99.3785 13.0347 99.4474 13.0769C99.5237 13.1201 99.5692 13.1993 99.5692 13.3102C99.5692 13.4191 99.5237 13.5077 99.4474 13.5564V13.5564ZM99.8021 13.8763C99.9325 13.9258 100.039 14.0166 100.089 14.0917C100.172 14.2178 100.185 14.335 100.186 14.5611V15.0715H99.5985V14.7501C99.5985 14.5941 99.6129 14.3658 99.5031 14.2471C99.4184 14.1526 99.2873 14.1317 99.074 14.1317H98.4462V15.0714H97.8576V12.4995H99.2107C99.5086 12.4995 99.7251 12.5123 99.9172 12.6211C100.102 12.7373 100.217 12.9003 100.217 13.193C100.217 13.6016 99.9567 13.8111 99.8021 13.8763V13.8763ZM100.543 12.4995H102.502V13.0326H101.128V13.4978H102.467V14.0229H101.128V14.534L102.502 14.5369V15.0714H100.543V12.4995ZM96.587 13.6854H95.8274V13.0326H96.5933C96.805 13.0326 96.9515 13.1208 96.9515 13.3476C96.9515 13.5693 96.8119 13.6854 96.587 13.6854V13.6854ZM95.2433 14.838L94.3447 13.7906L95.2435 12.7757V14.838H95.2433ZM92.9184 14.534H91.4765V14.0229H92.7639V13.4978H91.4765V13.0326H92.9467L93.5871 13.7803L92.9184 14.534V14.534ZM97.5807 13.3476C97.5807 14.0595 97.0735 14.2083 96.5594 14.2083H95.8274V15.0714H94.6891L93.9665 14.2207L93.216 15.0714H90.8935V12.4995H93.252L93.9736 13.3418L94.7192 12.4995H96.5933C97.0592 12.4995 97.5807 12.6339 97.5807 13.3477V13.3476Z" fill="white"/>
<path fill-rule="evenodd" clip-rule="evenodd" d="M97.6787 8.76885C97.6787 9.17559 97.4182 9.38958 97.2674 9.45292C97.3954 9.50456 97.5042 9.59394 97.5552 9.67017C97.6381 9.79624 97.6542 9.91277 97.6542 10.1396V10.6444H97.0628L97.0603 10.3216C97.0603 10.1684 97.0751 9.94568 96.9656 9.82262C96.8795 9.73066 96.7512 9.71159 96.5385 9.71159H95.909V10.6444H95.3223V8.07422H96.6732C96.9705 8.07422 97.1925 8.08453 97.3825 8.19883C97.5689 8.31235 97.6787 8.48053 97.6787 8.76885" fill="#2F9BCA"/>
<path fill-rule="evenodd" clip-rule="evenodd" d="M94.913 10.6437H92.9531V8.07324H94.913V8.61104H93.541V9.07235H94.8787V9.6007L93.541 9.59924V10.1125H94.913" fill="#2EA3D0"/>
<path fill-rule="evenodd" clip-rule="evenodd" d="M92.5202 10.6437H91.919L91.9154 8.63347L91.0667 10.6437H90.5519L89.6972 8.62977V10.6437H88.5046L88.2797 10.0711H87.0581L86.8322 10.6437H86.1943L87.2431 8.07324H88.1153L89.1124 10.509V8.07324H90.0714L90.8383 9.81941L91.5433 8.07324H92.5202" fill="#55B2D8"/>
<path fill-rule="evenodd" clip-rule="evenodd" d="M96.915 9.1293C96.8352 9.17733 96.7398 9.18172 96.6254 9.18172H95.9123V8.61084H96.6345C96.7377 8.61084 96.8443 8.61487 96.9135 8.65518C96.9891 8.69368 97.0363 8.77317 97.0363 8.88274C97.0363 8.99558 96.9905 9.08461 96.9149 9.12938L96.915 9.1293ZM88.0721 9.53492L87.6699 8.5127L87.2705 9.53492" fill="white"/>
<rect x="46.1875" width="34" height="22" fill="white"/>
<path d="M59.3906 3.86816H66.9539V17.6045H59.3906V3.86816Z" fill="#FF5F00"/>
<path d="M59.8722 10.7369C59.8722 7.94597 61.1688 5.47047 63.1616 3.86867C61.697 2.70378 59.8483 2 57.8314 2C53.0531 2 49.1875 5.90727 49.1875 10.7369C49.1875 15.5664 53.0531 19.4738 57.8313 19.4738C59.8482 19.4738 61.6969 18.77 63.1616 17.605C61.1688 16.0275 59.8722 13.5278 59.8722 10.7369Z" fill="#EB001B"/>
<path d="M77.1616 10.7369C77.1616 15.5664 73.2959 19.4738 68.5178 19.4738C66.5009 19.4738 64.6521 18.77 63.1875 17.605C65.2044 16.0033 66.477 13.5278 66.477 10.7369C66.477 7.94597 65.1803 5.47047 63.1875 3.86867C64.652 2.70378 66.5009 2 68.5178 2C73.2959 2 77.1617 5.93159 77.1617 10.7369H77.1616Z" fill="#F79E1B"/>
<rect x="113.188" width="33" height="22" fill="white"/>
<path d="M117.971 7.69517H116.793V12.3656H117.965C118.587 12.3656 119.036 12.1981 119.431 11.8267C119.899 11.3855 120.176 10.7202 120.176 10.0326C120.176 8.65374 119.27 7.69517 117.971 7.69517V7.69517ZM118.908 11.2029C118.654 11.4627 118.328 11.5749 117.81 11.5749H117.595V8.48603H117.81C118.328 8.48603 118.642 8.59119 118.908 8.864C119.185 9.14415 119.35 9.57797 119.35 10.0259C119.35 10.4749 119.185 10.9239 118.908 11.2029ZM120.546 12.3656H121.347V7.69517H120.546V12.3656H120.546ZM123.307 9.48669C122.825 9.28406 122.684 9.1504 122.684 8.89921C122.684 8.60483 122.936 8.38093 123.282 8.38093C123.522 8.38093 123.719 8.49291 123.929 8.75821L124.347 8.13593C124.002 7.79207 123.59 7.61725 123.14 7.61725C122.413 7.61725 121.858 8.19177 121.858 8.95436C121.858 9.59918 122.117 9.92801 122.869 10.2369C123.183 10.3623 123.343 10.446 123.423 10.5032C123.583 10.6223 123.664 10.7897 123.664 10.9857C123.664 11.3644 123.399 11.6441 123.041 11.6441C122.659 11.6441 122.351 11.4273 122.166 11.0212L121.649 11.589C122.018 12.2044 122.462 12.4784 123.072 12.4784C123.904 12.4784 124.489 11.8473 124.489 10.9442C124.489 10.2017 124.219 9.86534 123.307 9.48669V9.48669ZM124.742 10.0327C124.742 11.4068 125.691 12.4709 126.911 12.4709C127.256 12.4709 127.552 12.3934 127.915 12.1981V11.126C127.595 11.4906 127.311 11.6372 126.947 11.6372C126.141 11.6372 125.567 10.9718 125.567 10.0259C125.567 9.12999 126.159 8.42256 126.911 8.42256C127.292 8.42256 127.582 8.57651 127.915 8.94766V7.87573C127.564 7.67333 127.274 7.58984 126.929 7.58984C125.715 7.58984 124.742 8.67553 124.742 10.0327V10.0327ZM134.409 10.8324L133.312 7.69517H132.437L134.181 12.4849H134.612L136.387 7.69512H135.519L134.409 10.8323V10.8324ZM136.751 12.3656H139.024V11.5749H137.552V10.3134H138.968V9.52264H137.552V8.48597H139.024V7.69523H136.751V12.3656H136.751ZM142.197 9.07351C142.197 8.1986 141.668 7.69517 140.743 7.69517H139.554V12.3656H140.355V10.4885H140.46L141.569 12.3656H142.555L141.26 10.3983C141.865 10.2577 142.197 9.78828 142.197 9.07351V9.07351ZM140.589 9.84482H140.355V8.42961H140.601C141.101 8.42961 141.372 8.66842 141.372 9.12294C141.372 9.59179 141.101 9.84482 140.589 9.84482V9.84482Z" fill="#0B1015"/>
<ellipse cx="130.332" cy="10.0524" rx="2.25978" ry="2.46552" fill="#F58220"/>
<path d="M146.188 22.0003H122.514C135.427 19.5728 143.736 14.667 146.188 12.5176V22.0003Z" fill="#F58220"/>
<rect width="40.1889" height="21.6402" fill="white"/>
<path d="M20.4181 8.51032C20.3983 10.0633 21.8092 10.9299 22.872 11.4452C23.9639 11.9739 24.3307 12.3129 24.3263 12.7857C24.3182 13.5092 23.4553 13.8286 22.6479 13.841C21.2392 13.8627 20.4201 13.4626 19.769 13.16L19.2615 15.5225C19.9148 15.822 21.1245 16.0833 22.379 16.0947C25.3237 16.0947 27.2501 14.6485 27.2606 12.4062C27.2721 9.56046 23.3043 9.40295 23.3314 8.13097C23.3408 7.74528 23.7107 7.33369 24.5212 7.22904C24.9224 7.17618 26.03 7.13572 27.2856 7.71102L27.7785 5.42518C27.1032 5.18055 26.2353 4.9463 25.1548 4.9463C22.3832 4.9463 20.4338 6.41221 20.4181 8.51032V8.51032ZM32.5141 5.14319C31.9764 5.14319 31.5232 5.45525 31.321 5.93413L27.1147 15.9268H30.0572L30.6428 14.3168H34.2384L34.5781 15.9268H37.1716L34.9084 5.14319H32.5141V5.14319ZM32.9257 8.05626L33.7749 12.1056H31.4492L32.9257 8.05626V8.05626ZM16.8505 5.14333L14.5311 15.9267H17.335L19.6534 5.14306H16.8505V5.14333ZM12.7025 5.14306L9.78396 12.483L8.60338 6.24215C8.46486 5.54548 7.91781 5.14319 7.31031 5.14319H2.53948L2.47266 5.45633C3.45209 5.66779 4.56489 6.00885 5.23908 6.37377C5.65167 6.59669 5.76932 6.79156 5.90487 7.32128L8.14091 15.9268H11.104L15.6469 5.14319H12.7025" fill="url(#paint1_linear_1073_2048)"/>
<rect x="152.188" width="32" height="22" fill="white"/>
<path d="M161.673 11V15.2286C161.673 15.5714 161.442 15.5714 161.094 15.4571C158.896 14.5429 157.623 11.6857 158.433 9.28571C158.896 8.02857 159.822 7 161.094 6.54286C161.557 6.31429 161.673 6.42857 161.673 6.77143V11ZM163.987 11V6.77143C163.987 6.42857 163.987 6.42857 164.335 6.54286C166.765 7.45714 168.037 10.3143 167.112 12.7143C166.649 13.9714 165.723 15 164.45 15.4571C163.987 15.6857 163.987 15.5714 163.987 15.2286V11ZM172.319 3H162.83C167.227 3 170.699 6.54286 170.699 11C170.699 15.4571 167.227 19 162.83 19H172.319C176.716 19 180.188 15.4571 180.188 11C180.188 6.54286 176.716 3 172.319 3Z" fill="#3086C8"/>
<defs>
<radialGradient id="paint0_radial_1073_2048" cx="0" cy="0" r="1" gradientUnits="userSpaceOnUse" gradientTransform="translate(89.6754 3.82184) scale(24.8892 26.0744)">
<stop stop-color="#88CDE7"/>
<stop offset="1" stop-color="#2274AD"/>
</radialGradient>
<linearGradient id="paint1_linear_1073_2048" x1="18.4251" y1="16.3184" x2="18.7462" y2="4.86868" gradientUnits="userSpaceOnUse">
<stop stop-color="#222357"/>
<stop offset="1" stop-color="#254AA5"/>
</linearGradient>
</defs>
</svg>
