<?xml version="1.0" encoding="UTF-8"?> <svg xmlns="http://www.w3.org/2000/svg" xmlns:xlink="http://www.w3.org/1999/xlink" width="619px" height="437px" viewBox="0 0 619 437" version="1.1"><title>Funnel</title><defs><path d="M28.953831,0.384019889 C37.8331036,-1.2032196 48.3631585,2.39095849 52.3767004,6.3763345 C64.4869239,18.4023283 67.8519897,39.88946 53.9197843,53.7243973 C40.0091693,67.5363823 17.9368475,64.8537382 5.71105152,52.7134874 C2.0741998,49.1034193 -0.256555294,38.9161313 0.0225968253,31.4172886 C0.145789526,31.2942037 0.27050626,31.1711189 0.394968988,31.046773 L0.394968988,31.046773 L3.02824471,28.4319769 C3.02824471,35.8440549 7.11341626,44.0985578 10.750014,47.7093826 C21.059338,57.9461063 37.7660462,57.4779803 47.7332247,47.5822622 C58.9861793,36.4065122 57.0481168,20.1736906 47.7649754,10.9556957 C43.7509254,6.97031972 36.1780034,2.25198361 26.0459753,3.40388616 C25.7924777,3.43339625 25.5369481,3.46593302 25.2793865,3.50225314 C26.1587537,2.63031814 27.036851,1.75737426 27.9144402,0.886448153 C28.0383949,0.763363317 28.1620957,0.640278481 28.2868124,0.516184753" id="path-1"></path><path d="M28.9542027,0.384265819 C37.8331914,-1.20373569 48.3627029,2.39146341 52.3762313,6.37660062 C64.4871761,18.4016261 67.8519765,39.8888301 53.919564,53.7238141 C40.0089958,67.5360979 17.9370022,64.8542014 5.7107393,52.7139097 C2.07440781,49.1030727 -0.256339443,38.9154982 0.0225577331,31.4178913 C0.146004024,31.2935449 0.270466334,31.1704597 0.394928644,31.0463655 C1.27302294,30.1754365 2.15010122,29.3045075 3.02844952,28.4315606 C3.02844952,35.8434114 7.11360733,44.0979421 10.7504468,47.709788 C21.0592281,57.9455373 37.7658802,57.4786709 47.7332792,47.5816583 C58.985942,36.4071318 57.04814,20.1732465 47.7652838,10.9562295 C43.7507393,6.97084007 36.1775887,2.25248806 26.0463567,3.40414227 C25.792352,3.43264356 25.5370772,3.46618934 25.2795165,3.5027618 C26.1586268,2.62981497 27.0367211,1.75787704 27.9143074,0.885939105 C28.0385157,0.763610526 28.162216,0.640525275 28.2869323,0.516431129" id="path-3"></path><path d="M28.9542395,0.384450332 C37.833251,-1.20382679 48.3630432,2.39041634 52.376582,6.37586447 C64.4870496,18.4018237 67.8518586,39.8885875 53.9199185,53.7240274 C40.0090609,67.5365146 17.937265,64.8535698 5.71097091,52.7141081 C2.07437615,49.103218 -0.256123046,38.9159979 0.0225208355,31.4172717 C0.146221447,31.2931757 0.270430069,31.1698364 0.394892696,31.0457405 C1.27298923,30.1758075 2.15006975,29.3038567 3.02816628,28.430897 C3.02816628,35.8431092 7.11358852,44.0975093 10.7504373,47.710165 C21.0594989,57.946065 37.7661936,57.4779306 47.733364,47.5820334 C58.9865635,36.4065856 57.0482486,20.1734703 47.7651146,10.9553086 C43.7510679,6.96986044 36.178152,2.25043003 26.0463862,3.40336234 C25.7923808,3.43186406 25.5371054,3.46541033 25.279544,3.50072219 C26.1586565,2.62877142 27.0370071,1.75682064 27.9143416,0.885878778 C28.0385502,0.762791715 28.1619968,0.638695741 28.2869675,0.516365361" id="path-5"></path><path d="M28.9541215,0.384440982 C37.8330968,-1.20380704 48.3625921,2.39037024 52.3766225,6.37624979 C64.4872948,18.401232 67.8518361,39.8881066 53.9194448,53.7235452 C40.0091518,67.536536 17.9371919,64.8538925 5.71094763,52.7136444 C2.07436769,49.1025682 -0.256122002,38.9155348 0.0225207437,31.4171982 C0.146220851,31.2928523 0.270682971,31.1702719 0.39514509,31.045926 C1.27298404,30.1752523 2.15006098,29.3033175 3.02840794,28.4316349 C3.02840794,35.8434591 7.11355952,44.0977079 10.7503935,47.7095408 C21.0591591,57.9452532 37.7660396,57.4773796 47.7331694,47.5814115 C58.9863231,36.4069252 57.048016,20.1736028 47.7651739,10.9553578 C43.7508896,6.96998266 36.1780046,2.25114316 26.04628,3.40430657 C25.7925297,3.43230332 25.5372553,3.46584897 25.2794409,3.50216908 C26.1585499,2.62972984 27.0366429,1.75779504 27.9144818,0.886364687 C28.0384359,0.763279879 28.16239,0.639942848 28.2868522,0.51685804" id="path-7"></path><path d="M28.9540245,0.384321815 C37.8332906,-1.2036814 48.3630836,2.39076488 52.3766226,6.37590636 C64.4870911,18.4014491 67.8519004,39.8886762 53.9197053,53.7241794 C40.0091007,67.536478 17.9370492,64.8535698 5.71100824,52.7140217 C2.07441321,49.1029286 -0.256340155,38.9158477 0.0225577519,31.4174761 C0.146004367,31.2931296 0.270467003,31.1705486 0.394929639,31.0462021 C1.27277223,30.1755244 2.15010681,29.3035855 3.02794941,28.4318989 C3.02794941,35.8435054 7.11362595,44.0977927 10.750475,47.7096425 C21.0595373,57.9454027 37.7659792,57.4775269 47.7331503,47.582017 C58.9863506,36.4069741 57.0480356,20.1738282 47.764901,10.9555402 C43.7511079,6.97014645 36.1779375,2.25103271 26.046425,3.40394927 C25.7926736,3.43270282 25.5371442,3.46574419 25.2793287,3.50181224 C26.1584413,2.62962115 27.0367919,1.75768228 27.9143805,0.886500087 C28.0383351,0.763414704 28.1625438,0.639824873 28.2870064,0.516739491" id="path-9"></path><path d="M28.9539008,0.384320055 C37.8331283,-1.20368065 48.3628755,2.39075995 52.3763971,6.37614735 C64.487067,18.4014189 67.8518616,39.888612 53.9199811,53.7240933 C40.0091829,67.5366223 17.9369733,64.8534661 5.71098553,52.7139372 C2.0741523,49.1028498 -0.256336926,38.915785 0.0225597688,31.417173 C0.146005847,31.2928267 0.270721946,31.1707504 0.395184042,31.0461519 C1.27276881,30.1757278 2.15009958,29.303538 3.02844637,28.4318528 C3.02844637,35.8436998 7.11359714,44.0977218 10.7501764,47.7100703 C21.0591939,57.9455621 37.7660711,57.4776871 47.7329449,47.5819407 C58.9860964,36.4066632 57.0477897,20.1737951 47.7649495,10.9555217 C43.7506659,6.97013428 36.1780364,2.251028 26.0460598,3.40419496 C25.7923096,3.43244402 25.5370353,3.46598978 25.2797289,3.50180555 C26.1588377,2.62936361 27.0366765,1.75793057 27.9145153,0.886245309 L27.9145153,0.886245309 L28.2868856,0.516485298" id="path-11"></path><circle id="path-13" cx="28" cy="28" r="28"></circle><circle id="path-15" cx="28" cy="28" r="28"></circle><circle id="path-17" cx="28" cy="28" r="28"></circle><circle id="path-19" cx="28" cy="28" r="28"></circle><circle id="path-21" cx="28" cy="28" r="28"></circle><polygon id="path-23" points="0 33 32 33 32 0 0 0"></polygon><circle id="path-25" cx="28" cy="28" r="28"></circle></defs><g id="Page-1" stroke="none" stroke-width="1" fill="none" fill-rule="evenodd"><g id="Orange---Yellow-Copy" transform="translate(-131.000000, -61.000000)"><g id="Funnel" transform="translate(131.000000, 61.000000)"><g id="Group-68"><path d="M371.832592,369 C390.702546,369 406,384.222107 406,402.998982 C406,421.777638 390.702546,437 371.832592,437 L371.832592,437 L311.547,436.999 L311.547338,437 L246.167408,437 C227.297454,437 212,421.777893 212,403.001018 C212,384.222362 227.297454,369 246.167408,369 L246.167408,369 Z" id="Combined-Shape" fill="#89CBFF"></path><g id="Group-7" transform="translate(218.000000, 374.000000)"><mask id="mask-2" fill="white"><use xlink:href="#path-1"></use></mask><g id="Clip-6"></g><path d="M0.0225968253,31.4172886 C-0.256555294,38.9161313 2.0741998,49.1034193 5.71105152,52.7134874 C17.9368475,64.8537382 40.0091693,67.5363823 53.9197843,53.7243973 C67.8519897,39.88946 64.4869239,18.4023283 52.3767004,6.3763345 C48.3631585,2.39095849 37.8331036,-1.2032196 28.953831,0.384019889 C28.7305601,0.424375573 28.5083052,0.468766825 28.2868124,0.516184753 C28.1620957,0.640278481 28.0383949,0.763363317 27.9144402,0.886448153 C27.036851,1.75737426 26.1587537,2.63031814 25.2793865,3.50225314 C25.5369481,3.46593302 25.7924777,3.43339625 26.0459753,3.40388616 C36.1780034,2.25198361 43.7509254,6.97031972 47.7649754,10.9556957 C57.0481168,20.1736906 58.9861793,36.4065122 47.7332247,47.5822622 C37.7660462,57.4779803 21.059338,57.9461063 10.750014,47.7093826 C7.11341626,44.0985578 3.02824471,35.8440549 3.02824471,28.4319769 C2.15014746,29.3039119 1.27255823,30.1758469 0.394968988,31.046773 C0.27050626,31.1711189 0.145789526,31.2942037 0.0225968253,31.4172886" id="Fill-5" mask="url(#mask-2)"></path></g><path d="M221,402.501017 C221,387.864606 232.86489,376 247.500127,376 C262.135364,376 274,387.864606 274,402.501017 C274,417.135394 262.135364,429 247.500127,429 C232.86489,429 221,417.135394 221,402.501017" id="Fill-8" fill="#FFFFFF"></path><path d="M204.262391,363 C185.34021,363 170,347.776875 170,329 C170,310.221344 185.34021,295 204.262391,295 L204.262391,295 L415.737609,295 C434.65979,295 450,310.223125 450,329 C450,347.778656 434.65979,363 415.737609,363 L415.737609,363 Z" id="Combined-Shape" fill="#6CBDFD"></path><g id="Group-18" transform="translate(175.000000, 300.000000)"><mask id="mask-4" fill="white"><use xlink:href="#path-3"></use></mask><g id="Clip-17"></g><path d="M0.0225577331,31.4178913 C-0.256339443,38.9154982 2.07440781,49.1030727 5.7107393,52.7139097 C17.9370022,64.8542014 40.0089958,67.5360979 53.919564,53.7238141 C67.8519765,39.8888301 64.4871761,18.4016261 52.3762313,6.37660062 C48.3627029,2.39146341 37.8331914,-1.20373569 28.9542027,0.384265819 C28.7306785,0.424873863 28.5079164,0.468256369 28.2869323,0.516431129 C28.162216,0.640525275 28.0385157,0.763610526 27.9143074,0.885939105 C27.0367211,1.75787704 26.1586268,2.62981497 25.2795165,3.5027618 C25.5370772,3.46618934 25.792352,3.43264356 26.0463567,3.40414227 C36.1775887,2.25248806 43.7507393,6.97084007 47.7652838,10.9562295 C57.04814,20.1732465 58.985942,36.4071318 47.7332792,47.5816583 C37.7658802,57.4786709 21.0592281,57.9455373 10.7504468,47.709788 C7.11360733,44.0979421 3.02844952,35.8434114 3.02844952,28.4315606 C2.15010122,29.3045075 1.27302294,30.1754365 0.394928644,31.0463655 C0.270466334,31.1704597 0.146004024,31.2935449 0.0225577331,31.4178913" id="Fill-16" mask="url(#mask-4)"></path></g><path d="M178,329.5 C178,314.864044 189.865088,303 204.499746,303 C219.135167,303 231,314.864044 231,329.5 C231,344.134939 219.135167,356 204.499746,356 C189.865088,356 178,344.134939 178,329.5" id="Fill-19" fill="#FFFFFF"></path><path d="M162.085086,289 C143.260852,289 128,273.777581 128,255.000127 C128,236.221401 143.260852,221 162.085086,221 L162.085086,221 L457.914914,221 C476.739148,221 492,236.222419 492,254.999873 C492,273.778599 476.739148,289 457.914914,289 L457.914914,289 Z" id="Combined-Shape" fill="#54B1FA"></path><g id="Group-29" transform="translate(133.000000, 226.000000)"><mask id="mask-6" fill="white"><use xlink:href="#path-5"></use></mask><g id="Clip-28"></g><path d="M0.0225208355,31.4172717 C-0.256123046,38.9159979 2.07437615,49.103218 5.71097091,52.7141081 C17.937265,64.8535698 40.0090609,67.5365146 53.9199185,53.7240274 C67.8518586,39.8885875 64.4870496,18.4018237 52.376582,6.37586447 C48.3630432,2.39041634 37.833251,-1.20382679 28.9542395,0.384450332 C28.7307148,0.423797836 28.5082061,0.468189891 28.2869675,0.516365361 C28.1619968,0.638695741 28.0385502,0.762791715 27.9143416,0.885878778 C27.0370071,1.75682064 26.1586565,2.62877142 25.279544,3.50072219 C25.5371054,3.46541033 25.7923808,3.43186406 26.0463862,3.40336234 C36.178152,2.25043003 43.7510679,6.96986044 47.7651146,10.9553086 C57.0482486,20.1734703 58.9865635,36.4065856 47.733364,47.5820334 C37.7661936,57.4779306 21.0594989,57.946065 10.7504373,47.710165 C7.11358852,44.0975093 3.02816628,35.8431092 3.02816628,28.430897 C2.15006975,29.3038567 1.27298923,30.1758075 0.394892696,31.0457405 C0.270430069,31.1698364 0.146221447,31.2931757 0.0225208355,31.4172717" id="Fill-27" mask="url(#mask-6)"></path></g><path d="M136,255.500254 C136,240.86472 147.864974,229 162.499746,229 C177.135026,229 189,240.86472 189,255.500254 C189,270.134772 177.135026,282 162.499746,282 C147.864974,282 136,270.134772 136,255.500254" id="Fill-30" fill="#FFFFFF"></path><path d="M118.156802,215 C99.2928204,215 84,199.777581 84,181.000382 C84,162.222164 99.2928204,147 118.156802,147 L118.156802,147 L499.843198,147 C518.70718,147 534,162.222419 534,180.999618 C534,199.777836 518.70718,215 499.843198,215 L499.843198,215 Z" id="Combined-Shape" fill="#3BA5F8"></path><g id="Group-40" transform="translate(90.000000, 152.000000)"><mask id="mask-8" fill="white"><use xlink:href="#path-7"></use></mask><g id="Clip-39"></g><path d="M0.0225207437,31.4171982 C-0.256122002,38.9155348 2.07436769,49.1025682 5.71094763,52.7136444 C17.9371919,64.8538925 40.0091518,67.536536 53.9194448,53.7235452 C67.8518361,39.8881066 64.4872948,18.401232 52.3766225,6.37624979 C48.3625921,2.39037024 37.8330968,-1.20380704 28.9541215,0.384440982 C28.7305977,0.424292211 28.5078359,0.468179007 28.2868522,0.51685804 C28.16239,0.639942848 28.0384359,0.763279879 27.9144818,0.886364687 C27.0366429,1.75779504 26.1585499,2.62972984 25.2794409,3.50216908 C25.5372553,3.46584897 25.7925297,3.43230332 26.04628,3.40430657 C36.1780046,2.25114316 43.7508896,6.96998266 47.7651739,10.9553578 C57.048016,20.1736028 58.9863231,36.4069252 47.7331694,47.5814115 C37.7660396,57.4773796 21.0591591,57.9452532 10.7503935,47.7095408 C7.11355952,44.0977079 3.02840794,35.8434591 3.02840794,28.4316349 C2.15006098,29.3033175 1.27298404,30.1752523 0.39514509,31.045926 C0.270682971,31.1702719 0.146220851,31.2928523 0.0225207437,31.4171982" id="Fill-38" mask="url(#mask-8)"></path></g><path d="M93,181.500381 C93,166.864776 104.864522,155 119.499873,155 C134.134969,155 146,166.864776 146,181.500381 C146,196.135224 134.134969,208 119.499873,208 C104.864522,208 93,196.135224 93,181.500381" id="Fill-41" fill="#FFFFFF"></path><path d="M76.0608348,142 C57.2497127,142 42,126.778147 42,108.000763 C42,89.2226163 57.2497127,74 76.0608348,74 L76.0608348,74 L543.885136,74 C562.725701,74 578,89.2221075 578,107.999237 C578,126.777638 562.725701,142 543.885136,142 L543.885136,142 Z" id="Combined-Shape" fill="#2399F5"></path><g id="Group-51" transform="translate(48.000000, 79.000000)"><mask id="mask-10" fill="white"><use xlink:href="#path-9"></use></mask><g id="Clip-50"></g><path d="M0.0225577519,31.4174761 C-0.256340155,38.9158477 2.07441321,49.1029286 5.71100824,52.7140217 C17.9370492,64.8535698 40.0091007,67.536478 53.9197053,53.7241794 C67.8519004,39.8886762 64.4870911,18.4014491 52.3766226,6.37590636 C48.3630836,2.39076488 37.8332906,-1.2036814 28.9540245,0.384321815 C28.7304998,0.424425454 28.5082451,0.46856468 28.2870064,0.516739491 C28.1625438,0.639824873 28.0383351,0.763414704 27.9143805,0.886500087 C27.0367919,1.75768228 26.1584413,2.62962115 25.2793287,3.50181224 C25.5371442,3.46574419 25.7926736,3.43270282 26.046425,3.40394927 C36.1779375,2.25103271 43.7511079,6.97014645 47.764901,10.9555402 C57.0480356,20.1738282 58.9863506,36.4069741 47.7331503,47.582017 C37.7659792,57.4775269 21.0595373,57.9454027 10.750475,47.7096425 C7.11362595,44.0977927 3.02794941,35.8435054 3.02794941,28.4318989 C2.15010681,29.3035855 1.27277223,30.1755244 0.394929639,31.0462021 C0.270467003,31.1705486 0.146004367,31.2931296 0.0225577519,31.4174761" id="Fill-49" mask="url(#mask-10)"></path></g><path d="M51,107.500635 C51,92.8645223 62.8649168,81 77.4998729,81 C92.1350832,81 104,92.8645223 104,107.500635 C104,122.135478 92.1350832,134 77.4998729,134 C62.8649168,134 51,122.135478 51,107.500635" id="Fill-52" fill="#FFFFFF"></path><path d="M34.1148642,68 C15.274299,68 0,52.7778925 0,34.0007632 C0,15.2223619 15.274299,1.70530257e-13 34.1148642,1.70530257e-13 L34.1148642,1.70530257e-13 L584.885136,0 C603.725701,0 619,15.2221075 619,33.9992368 C619,52.7776381 603.725701,68 584.885136,68 L584.885136,68 Z" id="Combined-Shape" fill="#0088F2"></path><g id="Group-63" transform="translate(5.000000, 5.000000)"><mask id="mask-12" fill="white"><use xlink:href="#path-11"></use></mask><g id="Clip-62"></g><path d="M0.0225597688,31.417173 C-0.256336926,38.915785 2.0741523,49.1028498 5.71098553,52.7139372 C17.9369733,64.8534661 40.0091829,67.5366223 53.9199811,53.7240933 C67.8518616,39.888612 64.487067,18.4014189 52.3763971,6.37614735 C48.3628755,2.39075995 37.8331283,-1.20368065 28.9539008,0.384320055 C28.730885,0.424675855 28.5081233,0.468310563 28.2868856,0.516485298 C28.1621695,0.640074933 28.0384694,0.763664569 27.9145153,0.886245309 C27.0366765,1.75793057 26.1588377,2.62936361 25.2797289,3.50180555 C25.5370353,3.46598978 25.7923096,3.43244402 26.0460598,3.40419496 C36.1780364,2.251028 43.7506659,6.97013428 47.7649495,10.9555217 C57.0477897,20.1737951 58.9860964,36.4066632 47.7329449,47.5819407 C37.7660711,57.4776871 21.0591939,57.9455621 10.7501764,47.7100703 C7.11359714,44.0977218 3.02844637,35.8436998 3.02844637,28.4318528 C2.15009958,29.303538 1.27276881,30.1757278 0.395184042,31.0461519 C0.270721946,31.1707504 0.146005847,31.2928267 0.0225597688,31.417173" id="Fill-61" mask="url(#mask-12)"></path></g><path d="M8,33.5007624 C8,18.8648334 19.8648334,7 34.4997459,7 C49.1351666,7 61,18.8648334 61,33.5007624 C61,48.1351666 49.1351666,60 34.4997459,60 C19.8648334,60 8,48.1351666 8,33.5007624" id="Fill-64" fill="#FFFFFF"></path></g><g id="Repeat-order" transform="translate(295.128500, 383.993000)" fill="#FFFFFF" fill-rule="nonzero"><path d="M7.917,14.007 L11.34,14.007 L8.19,8.673 C9.702,8.316 11.256,6.993 11.256,4.515 C11.256,1.911 9.471,0 6.552,0 L0,0 L0,14.007 L2.982,14.007 L2.982,8.988 L5.166,8.988 L7.917,14.007 Z M8.211,4.494 C8.211,5.67 7.308,6.426 6.111,6.426 L2.982,6.426 L2.982,2.562 L6.111,2.562 C7.308,2.562 8.211,3.318 8.211,4.494 Z" id="Shape"></path><path d="M12.789,8.925 C12.789,12.18 15.12,14.259 18.207,14.259 C19.782,14.259 21.378,13.776 22.386,12.852 L21.21,11.13 C20.559,11.76 19.446,12.138 18.501,12.138 C16.779,12.138 15.75,11.067 15.582,9.786 L23.121,9.786 L23.121,9.198 C23.121,5.88 21.063,3.612 18.039,3.612 C14.952,3.612 12.789,5.985 12.789,8.925 Z M18.039,5.733 C19.803,5.733 20.475,7.014 20.538,7.98 L15.54,7.98 C15.666,6.972 16.38,5.733 18.039,5.733 Z" id="Shape"></path><path d="M27.72,17.871 L27.72,12.705 C28.539,13.755 29.652,14.259 30.849,14.259 C33.453,14.259 35.343,12.306 35.343,8.925 C35.343,5.544 33.453,3.612 30.849,3.612 C29.61,3.612 28.497,4.158 27.72,5.145 L27.72,3.864 L25.053,3.864 L25.053,17.871 L27.72,17.871 Z M32.571,8.925 C32.571,10.689 31.542,11.886 30.009,11.886 C29.148,11.886 28.161,11.361 27.72,10.731 L27.72,7.14 C28.161,6.489 29.148,5.985 30.009,5.985 C31.542,5.985 32.571,7.182 32.571,8.925 Z" id="Shape"></path><path d="M36.687,8.925 C36.687,12.18 39.018,14.259 42.105,14.259 C43.68,14.259 45.276,13.776 46.284,12.852 L45.108,11.13 C44.457,11.76 43.344,12.138 42.399,12.138 C40.677,12.138 39.648,11.067 39.48,9.786 L47.019,9.786 L47.019,9.198 C47.019,5.88 44.961,3.612 41.937,3.612 C38.85,3.612 36.687,5.985 36.687,8.925 Z M41.937,5.733 C43.701,5.733 44.373,7.014 44.436,7.98 L39.438,7.98 C39.564,6.972 40.278,5.733 41.937,5.733 Z" id="Shape"></path><path d="M55.041,14.007 L57.708,14.007 L57.708,7.455 C57.708,4.536 55.587,3.612 53.277,3.612 C51.681,3.612 50.085,4.116 48.846,5.208 L49.854,6.993 C50.715,6.195 51.723,5.796 52.815,5.796 C54.159,5.796 55.041,6.468 55.041,7.497 L55.041,8.904 C54.369,8.085 53.172,7.665 51.828,7.665 C50.211,7.665 48.3,8.526 48.3,10.899 C48.3,13.167 50.211,14.259 51.828,14.259 C53.151,14.259 54.348,13.776 55.041,12.957 L55.041,14.007 Z M55.041,11.571 C54.6,12.159 53.76,12.453 52.899,12.453 C51.849,12.453 50.988,11.907 50.988,10.962 C50.988,9.975 51.849,9.429 52.899,9.429 C53.76,9.429 54.6,9.723 55.041,10.311 L55.041,11.571 Z" id="Shape"></path><path d="M63.756,14.259 C64.869,14.259 65.583,13.965 65.982,13.608 L65.415,11.592 C65.268,11.739 64.89,11.886 64.491,11.886 C63.903,11.886 63.567,11.403 63.567,10.773 L63.567,6.195 L65.625,6.195 L65.625,3.864 L63.567,3.864 L63.567,1.092 L60.879,1.092 L60.879,3.864 L59.199,3.864 L59.199,6.195 L60.879,6.195 L60.879,11.487 C60.879,13.293 61.887,14.259 63.756,14.259 Z" id="Path"></path><path d="M12.852,37.259 C16.212,37.259 18.228,34.823 18.228,31.925 C18.228,29.048 16.212,26.612 12.852,26.612 C9.513,26.612 7.497,29.048 7.497,31.925 C7.497,34.823 9.513,37.259 12.852,37.259 Z M12.852,34.886 C11.193,34.886 10.269,33.521 10.269,31.925 C10.269,30.35 11.193,28.985 12.852,28.985 C14.511,28.985 15.456,30.35 15.456,31.925 C15.456,33.521 14.511,34.886 12.852,34.886 Z" id="Shape"></path><path d="M20.202,37.007 L22.869,37.007 L22.869,30.308 C23.31,29.657 24.486,29.153 25.368,29.153 C25.662,29.153 25.914,29.195 26.103,29.237 L26.103,26.633 C24.843,26.633 23.583,27.347 22.869,28.25 L22.869,26.864 L20.202,26.864 L20.202,37.007 Z" id="Path"></path><path d="M34.734,37.007 L37.422,37.007 L37.422,23 L34.734,23 L34.734,28.166 C33.936,27.137 32.802,26.612 31.605,26.612 C29.022,26.612 27.111,28.628 27.111,31.946 C27.111,35.327 29.043,37.259 31.605,37.259 C32.823,37.259 33.936,36.713 34.734,35.705 L34.734,37.007 Z M34.734,33.731 C34.293,34.403 33.327,34.886 32.424,34.886 C30.912,34.886 29.862,33.689 29.862,31.946 C29.862,30.182 30.912,28.985 32.424,28.985 C33.327,28.985 34.293,29.468 34.734,30.14 L34.734,33.731 Z" id="Shape"></path><path d="M39.417,31.925 C39.417,35.18 41.748,37.259 44.835,37.259 C46.41,37.259 48.006,36.776 49.014,35.852 L47.838,34.13 C47.187,34.76 46.074,35.138 45.129,35.138 C43.407,35.138 42.378,34.067 42.21,32.786 L49.749,32.786 L49.749,32.198 C49.749,28.88 47.691,26.612 44.667,26.612 C41.58,26.612 39.417,28.985 39.417,31.925 Z M44.667,28.733 C46.431,28.733 47.103,30.014 47.166,30.98 L42.168,30.98 C42.294,29.972 43.008,28.733 44.667,28.733 Z" id="Shape"></path><path d="M51.681,37.007 L54.348,37.007 L54.348,30.308 C54.789,29.657 55.965,29.153 56.847,29.153 C57.141,29.153 57.393,29.195 57.582,29.237 L57.582,26.633 C56.322,26.633 55.062,27.347 54.348,28.25 L54.348,26.864 L51.681,26.864 L51.681,37.007 Z" id="Path"></path></g><g id="Complete-order" transform="translate(250.324000, 320.084000)" fill="#FFFFFF" fill-rule="nonzero"><path d="M7.7,15.18 C11.044,15.18 12.892,13.398 13.948,11.572 L11.264,10.274 C10.648,11.484 9.328,12.408 7.7,12.408 C5.148,12.408 3.212,10.362 3.212,7.59 C3.212,4.818 5.148,2.772 7.7,2.772 C9.328,2.772 10.648,3.718 11.264,4.906 L13.948,3.586 C12.914,1.76 11.044,0 7.7,0 C3.41,0 0,3.08 0,7.59 C0,12.1 3.41,15.18 7.7,15.18 Z" id="Path"></path><path d="M20.68,15.18 C24.2,15.18 26.312,12.628 26.312,9.592 C26.312,6.578 24.2,4.026 20.68,4.026 C17.182,4.026 15.07,6.578 15.07,9.592 C15.07,12.628 17.182,15.18 20.68,15.18 Z M20.68,12.694 C18.942,12.694 17.974,11.264 17.974,9.592 C17.974,7.942 18.942,6.512 20.68,6.512 C22.418,6.512 23.408,7.942 23.408,9.592 C23.408,11.264 22.418,12.694 20.68,12.694 Z" id="Shape"></path><path d="M41.558,14.916 L44.374,14.916 L44.374,7.238 C44.374,5.06 43.208,4.026 41.25,4.026 C39.622,4.026 38.214,4.994 37.598,5.962 C37.202,4.752 36.212,4.026 34.65,4.026 C33.022,4.026 31.614,5.038 31.174,5.676 L31.174,4.29 L28.38,4.29 L28.38,14.916 L31.174,14.916 L31.174,7.766 C31.592,7.172 32.406,6.512 33.374,6.512 C34.518,6.512 34.958,7.216 34.958,8.206 L34.958,14.916 L37.774,14.916 L37.774,7.744 C38.17,7.172 38.984,6.512 39.974,6.512 C41.118,6.512 41.558,7.216 41.558,8.206 L41.558,14.916 Z" id="Path"></path><path d="M49.918,18.964 L49.918,13.552 C50.776,14.652 51.942,15.18 53.196,15.18 C55.924,15.18 57.904,13.134 57.904,9.592 C57.904,6.05 55.924,4.026 53.196,4.026 C51.898,4.026 50.732,4.598 49.918,5.632 L49.918,4.29 L47.124,4.29 L47.124,18.964 L49.918,18.964 Z M55,9.592 C55,11.44 53.922,12.694 52.316,12.694 C51.414,12.694 50.38,12.144 49.918,11.484 L49.918,7.722 C50.38,7.04 51.414,6.512 52.316,6.512 C53.922,6.512 55,7.766 55,9.592 Z" id="Shape"></path><polygon id="Path" points="59.994 14.916 62.788 14.916 62.788 0.242 59.994 0.242"></polygon><path d="M64.878,9.592 C64.878,13.002 67.32,15.18 70.554,15.18 C72.204,15.18 73.876,14.674 74.932,13.706 L73.7,11.902 C73.018,12.562 71.852,12.958 70.862,12.958 C69.058,12.958 67.98,11.836 67.804,10.494 L75.702,10.494 L75.702,9.878 C75.702,6.402 73.546,4.026 70.378,4.026 C67.144,4.026 64.878,6.512 64.878,9.592 Z M70.378,6.248 C72.226,6.248 72.93,7.59 72.996,8.602 L67.76,8.602 C67.892,7.546 68.64,6.248 70.378,6.248 Z" id="Shape"></path><path d="M81.29,15.18 C82.456,15.18 83.204,14.872 83.622,14.498 L83.028,12.386 C82.874,12.54 82.478,12.694 82.06,12.694 C81.444,12.694 81.092,12.188 81.092,11.528 L81.092,6.732 L83.248,6.732 L83.248,4.29 L81.092,4.29 L81.092,1.386 L78.276,1.386 L78.276,4.29 L76.516,4.29 L76.516,6.732 L78.276,6.732 L78.276,12.276 C78.276,14.168 79.332,15.18 81.29,15.18 Z" id="Path"></path><path d="M84.48,9.592 C84.48,13.002 86.922,15.18 90.156,15.18 C91.806,15.18 93.478,14.674 94.534,13.706 L93.302,11.902 C92.62,12.562 91.454,12.958 90.464,12.958 C88.66,12.958 87.582,11.836 87.406,10.494 L95.304,10.494 L95.304,9.878 C95.304,6.402 93.148,4.026 89.98,4.026 C86.746,4.026 84.48,6.512 84.48,9.592 Z M89.98,6.248 C91.828,6.248 92.532,7.59 92.598,8.602 L87.362,8.602 C87.494,7.546 88.242,6.248 89.98,6.248 Z" id="Shape"></path><path d="M107.888,15.18 C111.408,15.18 113.52,12.628 113.52,9.592 C113.52,6.578 111.408,4.026 107.888,4.026 C104.39,4.026 102.278,6.578 102.278,9.592 C102.278,12.628 104.39,15.18 107.888,15.18 Z M107.888,12.694 C106.15,12.694 105.182,11.264 105.182,9.592 C105.182,7.942 106.15,6.512 107.888,6.512 C109.626,6.512 110.616,7.942 110.616,9.592 C110.616,11.264 109.626,12.694 107.888,12.694 Z" id="Shape"></path><path d="M115.588,14.916 L118.382,14.916 L118.382,7.898 C118.844,7.216 120.076,6.688 121,6.688 C121.308,6.688 121.572,6.732 121.77,6.776 L121.77,4.048 C120.45,4.048 119.13,4.796 118.382,5.742 L118.382,4.29 L115.588,4.29 L115.588,14.916 Z" id="Path"></path><path d="M130.812,14.916 L133.628,14.916 L133.628,0.242 L130.812,0.242 L130.812,5.654 C129.976,4.576 128.788,4.026 127.534,4.026 C124.828,4.026 122.826,6.138 122.826,9.614 C122.826,13.156 124.85,15.18 127.534,15.18 C128.81,15.18 129.976,14.608 130.812,13.552 L130.812,14.916 Z M130.812,11.484 C130.35,12.188 129.338,12.694 128.392,12.694 C126.808,12.694 125.708,11.44 125.708,9.614 C125.708,7.766 126.808,6.512 128.392,6.512 C129.338,6.512 130.35,7.018 130.812,7.722 L130.812,11.484 Z" id="Shape"></path><path d="M135.718,9.592 C135.718,13.002 138.16,15.18 141.394,15.18 C143.044,15.18 144.716,14.674 145.772,13.706 L144.54,11.902 C143.858,12.562 142.692,12.958 141.702,12.958 C139.898,12.958 138.82,11.836 138.644,10.494 L146.542,10.494 L146.542,9.878 C146.542,6.402 144.386,4.026 141.218,4.026 C137.984,4.026 135.718,6.512 135.718,9.592 Z M141.218,6.248 C143.066,6.248 143.77,7.59 143.836,8.602 L138.6,8.602 C138.732,7.546 139.48,6.248 141.218,6.248 Z" id="Shape"></path><path d="M148.566,14.916 L151.36,14.916 L151.36,7.898 C151.822,7.216 153.054,6.688 153.978,6.688 C154.286,6.688 154.55,6.732 154.748,6.776 L154.748,4.048 C153.428,4.048 152.108,4.796 151.36,5.742 L151.36,4.29 L148.566,4.29 L148.566,14.916 Z" id="Path"></path></g><g id="Visit-checkout" transform="translate(256.792000, 246.468000)" fill="#FFFFFF" fill-rule="nonzero"><polygon id="Path" points="5.676 15.532 9.592 15.532 15.246 0.858 11.682 0.858 7.634 12.144 3.564 0.858 0 0.858"></polygon><path d="M17.93,3.344 C18.854,3.344 19.602,2.596 19.602,1.672 C19.602,0.748 18.854,0 17.93,0 C17.028,0 16.258,0.748 16.258,1.672 C16.258,2.596 17.028,3.344 17.93,3.344 Z M16.544,15.532 L19.338,15.532 L19.338,4.906 L16.544,4.906 L16.544,15.532 Z" id="Shape"></path><path d="M21.186,14.146 C22.308,15.18 24.09,15.796 25.938,15.796 C28.886,15.796 30.536,14.322 30.536,12.386 C30.536,9.746 28.094,9.262 26.268,8.91 C25.08,8.668 24.244,8.426 24.244,7.766 C24.244,7.15 24.904,6.776 25.916,6.776 C27.214,6.776 28.424,7.326 29.062,8.008 L30.184,6.094 C29.128,5.258 27.698,4.642 25.894,4.642 C23.1,4.642 21.538,6.204 21.538,7.986 C21.538,10.516 23.892,10.956 25.718,11.308 C26.928,11.55 27.852,11.814 27.852,12.562 C27.852,13.222 27.28,13.64 26.07,13.64 C24.75,13.64 23.166,12.914 22.396,12.188 L21.186,14.146 Z" id="Path"></path><path d="M33.99,3.344 C34.914,3.344 35.662,2.596 35.662,1.672 C35.662,0.748 34.914,0 33.99,0 C33.088,0 32.318,0.748 32.318,1.672 C32.318,2.596 33.088,3.344 33.99,3.344 Z M32.604,15.532 L35.398,15.532 L35.398,4.906 L32.604,4.906 L32.604,15.532 Z" id="Shape"></path><path d="M41.734,15.796 C42.9,15.796 43.648,15.488 44.066,15.114 L43.472,13.002 C43.318,13.156 42.922,13.31 42.504,13.31 C41.888,13.31 41.536,12.804 41.536,12.144 L41.536,7.348 L43.692,7.348 L43.692,4.906 L41.536,4.906 L41.536,2.002 L38.72,2.002 L38.72,4.906 L36.96,4.906 L36.96,7.348 L38.72,7.348 L38.72,12.892 C38.72,14.784 39.776,15.796 41.734,15.796 Z" id="Path"></path><path d="M50.556,10.208 C50.556,13.486 52.91,15.796 56.188,15.796 C58.366,15.796 59.686,14.85 60.39,13.86 L58.564,12.166 C58.058,12.87 57.288,13.31 56.32,13.31 C54.626,13.31 53.438,12.056 53.438,10.208 C53.438,8.36 54.626,7.128 56.32,7.128 C57.288,7.128 58.058,7.524 58.564,8.272 L60.39,6.556 C59.686,5.588 58.366,4.642 56.188,4.642 C52.91,4.642 50.556,6.952 50.556,10.208 Z" id="Path"></path><path d="M69.41,15.532 L72.204,15.532 L72.204,7.986 C72.204,5.918 71.082,4.642 68.75,4.642 C67.012,4.642 65.692,5.478 65.01,6.292 L65.01,0.858 L62.216,0.858 L62.216,15.532 L65.01,15.532 L65.01,8.382 C65.494,7.744 66.352,7.128 67.43,7.128 C68.64,7.128 69.41,7.59 69.41,9.064 L69.41,15.532 Z" id="Path"></path><path d="M74.294,10.208 C74.294,13.618 76.736,15.796 79.97,15.796 C81.62,15.796 83.292,15.29 84.348,14.322 L83.116,12.518 C82.434,13.178 81.268,13.574 80.278,13.574 C78.474,13.574 77.396,12.452 77.22,11.11 L85.118,11.11 L85.118,10.494 C85.118,7.018 82.962,4.642 79.794,4.642 C76.56,4.642 74.294,7.128 74.294,10.208 Z M79.794,6.864 C81.642,6.864 82.346,8.206 82.412,9.218 L77.176,9.218 C77.308,8.162 78.056,6.864 79.794,6.864 Z" id="Shape"></path><path d="M86.46,10.208 C86.46,13.486 88.814,15.796 92.092,15.796 C94.27,15.796 95.59,14.85 96.294,13.86 L94.468,12.166 C93.962,12.87 93.192,13.31 92.224,13.31 C90.53,13.31 89.342,12.056 89.342,10.208 C89.342,8.36 90.53,7.128 92.224,7.128 C93.192,7.128 93.962,7.524 94.468,8.272 L96.294,6.556 C95.59,5.588 94.27,4.642 92.092,4.642 C88.814,4.642 86.46,6.952 86.46,10.208 Z" id="Path"></path><polygon id="Path" points="105.006 15.532 108.504 15.532 104.17 9.724 108.372 4.906 104.94 4.906 100.914 9.636 100.914 0.858 98.12 0.858 98.12 15.532 100.914 15.532 100.914 12.804 102.19 11.44"></polygon><path d="M114.818,15.796 C118.338,15.796 120.45,13.244 120.45,10.208 C120.45,7.194 118.338,4.642 114.818,4.642 C111.32,4.642 109.208,7.194 109.208,10.208 C109.208,13.244 111.32,15.796 114.818,15.796 Z M114.818,13.31 C113.08,13.31 112.112,11.88 112.112,10.208 C112.112,8.558 113.08,7.128 114.818,7.128 C116.556,7.128 117.546,8.558 117.546,10.208 C117.546,11.88 116.556,13.31 114.818,13.31 Z" id="Shape"></path><path d="M129.69,15.532 L132.484,15.532 L132.484,4.906 L129.69,4.906 L129.69,12.1 C129.206,12.716 128.348,13.31 127.27,13.31 C126.082,13.31 125.312,12.826 125.312,11.352 L125.312,4.906 L122.518,4.906 L122.518,12.452 C122.518,14.52 123.618,15.796 125.95,15.796 C127.688,15.796 128.964,15.004 129.69,14.19 L129.69,15.532 Z" id="Path"></path><path d="M138.82,15.796 C139.986,15.796 140.734,15.488 141.152,15.114 L140.558,13.002 C140.404,13.156 140.008,13.31 139.59,13.31 C138.974,13.31 138.622,12.804 138.622,12.144 L138.622,7.348 L140.778,7.348 L140.778,4.906 L138.622,4.906 L138.622,2.002 L135.806,2.002 L135.806,4.906 L134.046,4.906 L134.046,7.348 L135.806,7.348 L135.806,12.892 C135.806,14.784 136.862,15.796 138.82,15.796 Z" id="Path"></path></g><g id="Create-account" transform="translate(252.337000, 173.084000)" fill="#FFFFFF" fill-rule="nonzero"><path d="M7.7,15.18 C11.044,15.18 12.892,13.398 13.948,11.572 L11.264,10.274 C10.648,11.484 9.328,12.408 7.7,12.408 C5.148,12.408 3.212,10.362 3.212,7.59 C3.212,4.818 5.148,2.772 7.7,2.772 C9.328,2.772 10.648,3.718 11.264,4.906 L13.948,3.586 C12.914,1.76 11.044,0 7.7,0 C3.41,0 0,3.08 0,7.59 C0,12.1 3.41,15.18 7.7,15.18 Z" id="Path"></path><path d="M15.752,14.916 L18.546,14.916 L18.546,7.898 C19.008,7.216 20.24,6.688 21.164,6.688 C21.472,6.688 21.736,6.732 21.934,6.776 L21.934,4.048 C20.614,4.048 19.294,4.796 18.546,5.742 L18.546,4.29 L15.752,4.29 L15.752,14.916 Z" id="Path"></path><path d="M22.99,9.592 C22.99,13.002 25.432,15.18 28.666,15.18 C30.316,15.18 31.988,14.674 33.044,13.706 L31.812,11.902 C31.13,12.562 29.964,12.958 28.974,12.958 C27.17,12.958 26.092,11.836 25.916,10.494 L33.814,10.494 L33.814,9.878 C33.814,6.402 31.658,4.026 28.49,4.026 C25.256,4.026 22.99,6.512 22.99,9.592 Z M28.49,6.248 C30.338,6.248 31.042,7.59 31.108,8.602 L25.872,8.602 C26.004,7.546 26.752,6.248 28.49,6.248 Z" id="Shape"></path><path d="M42.218,14.916 L45.012,14.916 L45.012,8.052 C45.012,4.994 42.79,4.026 40.37,4.026 C38.698,4.026 37.026,4.554 35.728,5.698 L36.784,7.568 C37.686,6.732 38.742,6.314 39.886,6.314 C41.294,6.314 42.218,7.018 42.218,8.096 L42.218,9.57 C41.514,8.712 40.26,8.272 38.852,8.272 C37.158,8.272 35.156,9.174 35.156,11.66 C35.156,14.036 37.158,15.18 38.852,15.18 C40.238,15.18 41.492,14.674 42.218,13.816 L42.218,14.916 Z M42.218,12.364 C41.756,12.98 40.876,13.288 39.974,13.288 C38.874,13.288 37.972,12.716 37.972,11.726 C37.972,10.692 38.874,10.12 39.974,10.12 C40.876,10.12 41.756,10.428 42.218,11.044 L42.218,12.364 Z" id="Shape"></path><path d="M51.348,15.18 C52.514,15.18 53.262,14.872 53.68,14.498 L53.086,12.386 C52.932,12.54 52.536,12.694 52.118,12.694 C51.502,12.694 51.15,12.188 51.15,11.528 L51.15,6.732 L53.306,6.732 L53.306,4.29 L51.15,4.29 L51.15,1.386 L48.334,1.386 L48.334,4.29 L46.574,4.29 L46.574,6.732 L48.334,6.732 L48.334,12.276 C48.334,14.168 49.39,15.18 51.348,15.18 Z" id="Path"></path><path d="M54.538,9.592 C54.538,13.002 56.98,15.18 60.214,15.18 C61.864,15.18 63.536,14.674 64.592,13.706 L63.36,11.902 C62.678,12.562 61.512,12.958 60.522,12.958 C58.718,12.958 57.64,11.836 57.464,10.494 L65.362,10.494 L65.362,9.878 C65.362,6.402 63.206,4.026 60.038,4.026 C56.804,4.026 54.538,6.512 54.538,9.592 Z M60.038,6.248 C61.886,6.248 62.59,7.59 62.656,8.602 L57.42,8.602 C57.552,7.546 58.3,6.248 60.038,6.248 Z" id="Shape"></path><path d="M79.398,14.916 L82.192,14.916 L82.192,8.052 C82.192,4.994 79.97,4.026 77.55,4.026 C75.878,4.026 74.206,4.554 72.908,5.698 L73.964,7.568 C74.866,6.732 75.922,6.314 77.066,6.314 C78.474,6.314 79.398,7.018 79.398,8.096 L79.398,9.57 C78.694,8.712 77.44,8.272 76.032,8.272 C74.338,8.272 72.336,9.174 72.336,11.66 C72.336,14.036 74.338,15.18 76.032,15.18 C77.418,15.18 78.672,14.674 79.398,13.816 L79.398,14.916 Z M79.398,12.364 C78.936,12.98 78.056,13.288 77.154,13.288 C76.054,13.288 75.152,12.716 75.152,11.726 C75.152,10.692 76.054,10.12 77.154,10.12 C78.056,10.12 78.936,10.428 79.398,11.044 L79.398,12.364 Z" id="Shape"></path><path d="M84.282,9.592 C84.282,12.87 86.636,15.18 89.914,15.18 C92.092,15.18 93.412,14.234 94.116,13.244 L92.29,11.55 C91.784,12.254 91.014,12.694 90.046,12.694 C88.352,12.694 87.164,11.44 87.164,9.592 C87.164,7.744 88.352,6.512 90.046,6.512 C91.014,6.512 91.784,6.908 92.29,7.656 L94.116,5.94 C93.412,4.972 92.092,4.026 89.914,4.026 C86.636,4.026 84.282,6.336 84.282,9.592 Z" id="Path"></path><path d="M95.26,9.592 C95.26,12.87 97.614,15.18 100.892,15.18 C103.07,15.18 104.39,14.234 105.094,13.244 L103.268,11.55 C102.762,12.254 101.992,12.694 101.024,12.694 C99.33,12.694 98.142,11.44 98.142,9.592 C98.142,7.744 99.33,6.512 101.024,6.512 C101.992,6.512 102.762,6.908 103.268,7.656 L105.094,5.94 C104.39,4.972 103.07,4.026 100.892,4.026 C97.614,4.026 95.26,6.336 95.26,9.592 Z" id="Path"></path><path d="M111.848,15.18 C115.368,15.18 117.48,12.628 117.48,9.592 C117.48,6.578 115.368,4.026 111.848,4.026 C108.35,4.026 106.238,6.578 106.238,9.592 C106.238,12.628 108.35,15.18 111.848,15.18 Z M111.848,12.694 C110.11,12.694 109.142,11.264 109.142,9.592 C109.142,7.942 110.11,6.512 111.848,6.512 C113.586,6.512 114.576,7.942 114.576,9.592 C114.576,11.264 113.586,12.694 111.848,12.694 Z" id="Shape"></path><path d="M126.72,14.916 L129.514,14.916 L129.514,4.29 L126.72,4.29 L126.72,11.484 C126.236,12.1 125.378,12.694 124.3,12.694 C123.112,12.694 122.342,12.21 122.342,10.736 L122.342,4.29 L119.548,4.29 L119.548,11.836 C119.548,13.904 120.648,15.18 122.98,15.18 C124.718,15.18 125.994,14.388 126.72,13.574 L126.72,14.916 Z" id="Path"></path><path d="M139.458,14.916 L142.252,14.916 L142.252,7.414 C142.252,5.346 141.13,4.026 138.798,4.026 C137.06,4.026 135.762,4.862 135.08,5.676 L135.08,4.29 L132.286,4.29 L132.286,14.916 L135.08,14.916 L135.08,7.766 C135.542,7.128 136.4,6.512 137.5,6.512 C138.688,6.512 139.458,7.018 139.458,8.492 L139.458,14.916 Z" id="Path"></path><path d="M148.588,15.18 C149.754,15.18 150.502,14.872 150.92,14.498 L150.326,12.386 C150.172,12.54 149.776,12.694 149.358,12.694 C148.742,12.694 148.39,12.188 148.39,11.528 L148.39,6.732 L150.546,6.732 L150.546,4.29 L148.39,4.29 L148.39,1.386 L145.574,1.386 L145.574,4.29 L143.814,4.29 L143.814,6.732 L145.574,6.732 L145.574,12.276 C145.574,14.168 146.63,15.18 148.588,15.18 Z" id="Path"></path></g><g id="Add-product-to-cart" transform="translate(230.623000, 99.326000)" fill="#FFFFFF" fill-rule="nonzero"><path d="M11.836,14.674 L15.246,14.674 L9.592,0 L5.676,0 L0,14.674 L3.432,14.674 L4.356,12.144 L10.912,12.144 L11.836,14.674 Z M7.634,2.706 L10.054,9.438 L5.192,9.438 L7.634,2.706 Z" id="Shape"></path><path d="M23.848,14.674 L26.664,14.674 L26.664,0 L23.848,0 L23.848,5.412 C23.012,4.334 21.824,3.784 20.57,3.784 C17.864,3.784 15.862,5.896 15.862,9.372 C15.862,12.914 17.886,14.938 20.57,14.938 C21.846,14.938 23.012,14.366 23.848,13.31 L23.848,14.674 Z M23.848,11.242 C23.386,11.946 22.374,12.452 21.428,12.452 C19.844,12.452 18.744,11.198 18.744,9.372 C18.744,7.524 19.844,6.27 21.428,6.27 C22.374,6.27 23.386,6.776 23.848,7.48 L23.848,11.242 Z" id="Shape"></path><path d="M36.74,14.674 L39.556,14.674 L39.556,0 L36.74,0 L36.74,5.412 C35.904,4.334 34.716,3.784 33.462,3.784 C30.756,3.784 28.754,5.896 28.754,9.372 C28.754,12.914 30.778,14.938 33.462,14.938 C34.738,14.938 35.904,14.366 36.74,13.31 L36.74,14.674 Z M36.74,11.242 C36.278,11.946 35.266,12.452 34.32,12.452 C32.736,12.452 31.636,11.198 31.636,9.372 C31.636,7.524 32.736,6.27 34.32,6.27 C35.266,6.27 36.278,6.776 36.74,7.48 L36.74,11.242 Z" id="Shape"></path><path d="M50.754,18.722 L50.754,13.31 C51.612,14.41 52.778,14.938 54.032,14.938 C56.76,14.938 58.74,12.892 58.74,9.35 C58.74,5.808 56.76,3.784 54.032,3.784 C52.734,3.784 51.568,4.356 50.754,5.39 L50.754,4.048 L47.96,4.048 L47.96,18.722 L50.754,18.722 Z M55.836,9.35 C55.836,11.198 54.758,12.452 53.152,12.452 C52.25,12.452 51.216,11.902 50.754,11.242 L50.754,7.48 C51.216,6.798 52.25,6.27 53.152,6.27 C54.758,6.27 55.836,7.524 55.836,9.35 Z" id="Shape"></path><path d="M60.83,14.674 L63.624,14.674 L63.624,7.656 C64.086,6.974 65.318,6.446 66.242,6.446 C66.55,6.446 66.814,6.49 67.012,6.534 L67.012,3.806 C65.692,3.806 64.372,4.554 63.624,5.5 L63.624,4.048 L60.83,4.048 L60.83,14.674 Z" id="Path"></path><path d="M73.678,14.938 C77.198,14.938 79.31,12.386 79.31,9.35 C79.31,6.336 77.198,3.784 73.678,3.784 C70.18,3.784 68.068,6.336 68.068,9.35 C68.068,12.386 70.18,14.938 73.678,14.938 Z M73.678,12.452 C71.94,12.452 70.972,11.022 70.972,9.35 C70.972,7.7 71.94,6.27 73.678,6.27 C75.416,6.27 76.406,7.7 76.406,9.35 C76.406,11.022 75.416,12.452 73.678,12.452 Z" id="Shape"></path><path d="M88.682,14.674 L91.498,14.674 L91.498,0 L88.682,0 L88.682,5.412 C87.846,4.334 86.658,3.784 85.404,3.784 C82.698,3.784 80.696,5.896 80.696,9.372 C80.696,12.914 82.72,14.938 85.404,14.938 C86.68,14.938 87.846,14.366 88.682,13.31 L88.682,14.674 Z M88.682,11.242 C88.22,11.946 87.208,12.452 86.262,12.452 C84.678,12.452 83.578,11.198 83.578,9.372 C83.578,7.524 84.678,6.27 86.262,6.27 C87.208,6.27 88.22,6.776 88.682,7.48 L88.682,11.242 Z" id="Shape"></path><path d="M101.442,14.674 L104.236,14.674 L104.236,4.048 L101.442,4.048 L101.442,11.242 C100.958,11.858 100.1,12.452 99.022,12.452 C97.834,12.452 97.064,11.968 97.064,10.494 L97.064,4.048 L94.27,4.048 L94.27,11.594 C94.27,13.662 95.37,14.938 97.702,14.938 C99.44,14.938 100.716,14.146 101.442,13.332 L101.442,14.674 Z" id="Path"></path><path d="M106.326,9.35 C106.326,12.628 108.68,14.938 111.958,14.938 C114.136,14.938 115.456,13.992 116.16,13.002 L114.334,11.308 C113.828,12.012 113.058,12.452 112.09,12.452 C110.396,12.452 109.208,11.198 109.208,9.35 C109.208,7.502 110.396,6.27 112.09,6.27 C113.058,6.27 113.828,6.666 114.334,7.414 L116.16,5.698 C115.456,4.73 114.136,3.784 111.958,3.784 C108.68,3.784 106.326,6.094 106.326,9.35 Z" id="Path"></path><path d="M121.55,14.938 C122.716,14.938 123.464,14.63 123.882,14.256 L123.288,12.144 C123.134,12.298 122.738,12.452 122.32,12.452 C121.704,12.452 121.352,11.946 121.352,11.286 L121.352,6.49 L123.508,6.49 L123.508,4.048 L121.352,4.048 L121.352,1.144 L118.536,1.144 L118.536,4.048 L116.776,4.048 L116.776,6.49 L118.536,6.49 L118.536,12.034 C118.536,13.926 119.592,14.938 121.55,14.938 Z" id="Path"></path><path d="M134.618,14.938 C135.784,14.938 136.532,14.63 136.95,14.256 L136.356,12.144 C136.202,12.298 135.806,12.452 135.388,12.452 C134.772,12.452 134.42,11.946 134.42,11.286 L134.42,6.49 L136.576,6.49 L136.576,4.048 L134.42,4.048 L134.42,1.144 L131.604,1.144 L131.604,4.048 L129.844,4.048 L129.844,6.49 L131.604,6.49 L131.604,12.034 C131.604,13.926 132.66,14.938 134.618,14.938 Z" id="Path"></path><path d="M143.418,14.938 C146.938,14.938 149.05,12.386 149.05,9.35 C149.05,6.336 146.938,3.784 143.418,3.784 C139.92,3.784 137.808,6.336 137.808,9.35 C137.808,12.386 139.92,14.938 143.418,14.938 Z M143.418,12.452 C141.68,12.452 140.712,11.022 140.712,9.35 C140.712,7.7 141.68,6.27 143.418,6.27 C145.156,6.27 146.146,7.7 146.146,9.35 C146.146,11.022 145.156,12.452 143.418,12.452 Z" id="Shape"></path><path d="M156.068,9.35 C156.068,12.628 158.422,14.938 161.7,14.938 C163.878,14.938 165.198,13.992 165.902,13.002 L164.076,11.308 C163.57,12.012 162.8,12.452 161.832,12.452 C160.138,12.452 158.95,11.198 158.95,9.35 C158.95,7.502 160.138,6.27 161.832,6.27 C162.8,6.27 163.57,6.666 164.076,7.414 L165.902,5.698 C165.198,4.73 163.878,3.784 161.7,3.784 C158.422,3.784 156.068,6.094 156.068,9.35 Z" id="Path"></path><path d="M174.108,14.674 L176.902,14.674 L176.902,7.81 C176.902,4.752 174.68,3.784 172.26,3.784 C170.588,3.784 168.916,4.312 167.618,5.456 L168.674,7.326 C169.576,6.49 170.632,6.072 171.776,6.072 C173.184,6.072 174.108,6.776 174.108,7.854 L174.108,9.328 C173.404,8.47 172.15,8.03 170.742,8.03 C169.048,8.03 167.046,8.932 167.046,11.418 C167.046,13.794 169.048,14.938 170.742,14.938 C172.128,14.938 173.382,14.432 174.108,13.574 L174.108,14.674 Z M174.108,12.122 C173.646,12.738 172.766,13.046 171.864,13.046 C170.764,13.046 169.862,12.474 169.862,11.484 C169.862,10.45 170.764,9.878 171.864,9.878 C172.766,9.878 173.646,10.186 174.108,10.802 L174.108,12.122 Z" id="Shape"></path><path d="M179.674,14.674 L182.468,14.674 L182.468,7.656 C182.93,6.974 184.162,6.446 185.086,6.446 C185.394,6.446 185.658,6.49 185.856,6.534 L185.856,3.806 C184.536,3.806 183.216,4.554 182.468,5.5 L182.468,4.048 L179.674,4.048 L179.674,14.674 Z" id="Path"></path><path d="M191.158,14.938 C192.324,14.938 193.072,14.63 193.49,14.256 L192.896,12.144 C192.742,12.298 192.346,12.452 191.928,12.452 C191.312,12.452 190.96,11.946 190.96,11.286 L190.96,6.49 L193.116,6.49 L193.116,4.048 L190.96,4.048 L190.96,1.144 L188.144,1.144 L188.144,4.048 L186.384,4.048 L186.384,6.49 L188.144,6.49 L188.144,12.034 C188.144,13.926 189.2,14.938 191.158,14.938 Z" id="Path"></path></g><g id="Submit-lead" transform="translate(268.551000, 24.468000)" fill="#FFFFFF" fill-rule="nonzero"><path d="M0,13.464 C1.386,14.85 3.41,15.796 6.226,15.796 C10.186,15.796 12.1,13.772 12.1,11.088 C12.1,7.832 9.02,7.106 6.6,6.556 C4.906,6.16 3.674,5.852 3.674,4.862 C3.674,3.982 4.422,3.366 5.83,3.366 C7.26,3.366 8.844,3.872 10.032,4.972 L11.77,2.684 C10.318,1.342 8.382,0.638 6.05,0.638 C2.596,0.638 0.484,2.618 0.484,5.06 C0.484,8.338 3.564,8.998 5.962,9.548 C7.656,9.944 8.932,10.318 8.932,11.418 C8.932,12.254 8.096,13.068 6.38,13.068 C4.356,13.068 2.75,12.166 1.716,11.088 L0,13.464 Z" id="Path"></path><path d="M21.318,15.532 L24.112,15.532 L24.112,4.906 L21.318,4.906 L21.318,12.1 C20.834,12.716 19.976,13.31 18.898,13.31 C17.71,13.31 16.94,12.826 16.94,11.352 L16.94,4.906 L14.146,4.906 L14.146,12.452 C14.146,14.52 15.246,15.796 17.578,15.796 C19.316,15.796 20.592,15.004 21.318,14.19 L21.318,15.532 Z" id="Path"></path><path d="M26.884,15.532 L29.678,15.532 L29.678,14.168 C30.514,15.224 31.68,15.796 32.956,15.796 C35.64,15.796 37.664,13.772 37.664,10.23 C37.664,6.754 35.662,4.642 32.956,4.642 C31.702,4.642 30.514,5.192 29.678,6.27 L29.678,0.858 L26.884,0.858 L26.884,15.532 Z M29.678,12.122 L29.678,8.36 C30.14,7.656 31.174,7.128 32.076,7.128 C33.704,7.128 34.782,8.382 34.782,10.23 C34.782,12.078 33.704,13.31 32.076,13.31 C31.174,13.31 30.14,12.804 29.678,12.122 Z" id="Shape"></path><path d="M52.954,15.532 L55.77,15.532 L55.77,7.854 C55.77,5.676 54.604,4.642 52.646,4.642 C51.018,4.642 49.61,5.61 48.994,6.578 C48.598,5.368 47.608,4.642 46.046,4.642 C44.418,4.642 43.01,5.654 42.57,6.292 L42.57,4.906 L39.776,4.906 L39.776,15.532 L42.57,15.532 L42.57,8.382 C42.988,7.788 43.802,7.128 44.77,7.128 C45.914,7.128 46.354,7.832 46.354,8.822 L46.354,15.532 L49.17,15.532 L49.17,8.36 C49.566,7.788 50.38,7.128 51.37,7.128 C52.514,7.128 52.954,7.832 52.954,8.822 L52.954,15.532 Z" id="Path"></path><path d="M59.906,3.344 C60.83,3.344 61.578,2.596 61.578,1.672 C61.578,0.748 60.83,0 59.906,0 C59.004,0 58.234,0.748 58.234,1.672 C58.234,2.596 59.004,3.344 59.906,3.344 Z M58.52,15.532 L61.314,15.532 L61.314,4.906 L58.52,4.906 L58.52,15.532 Z" id="Shape"></path><path d="M67.65,15.796 C68.816,15.796 69.564,15.488 69.982,15.114 L69.388,13.002 C69.234,13.156 68.838,13.31 68.42,13.31 C67.804,13.31 67.452,12.804 67.452,12.144 L67.452,7.348 L69.608,7.348 L69.608,4.906 L67.452,4.906 L67.452,2.002 L64.636,2.002 L64.636,4.906 L62.876,4.906 L62.876,7.348 L64.636,7.348 L64.636,12.892 C64.636,14.784 65.692,15.796 67.65,15.796 Z" id="Path"></path><polygon id="Path" points="77.154 15.532 79.948 15.532 79.948 0.858 77.154 0.858"></polygon><path d="M82.038,10.208 C82.038,13.618 84.48,15.796 87.714,15.796 C89.364,15.796 91.036,15.29 92.092,14.322 L90.86,12.518 C90.178,13.178 89.012,13.574 88.022,13.574 C86.218,13.574 85.14,12.452 84.964,11.11 L92.862,11.11 L92.862,10.494 C92.862,7.018 90.706,4.642 87.538,4.642 C84.304,4.642 82.038,7.128 82.038,10.208 Z M87.538,6.864 C89.386,6.864 90.09,8.206 90.156,9.218 L84.92,9.218 C85.052,8.162 85.8,6.864 87.538,6.864 Z" id="Shape"></path><path d="M101.266,15.532 L104.06,15.532 L104.06,8.668 C104.06,5.61 101.838,4.642 99.418,4.642 C97.746,4.642 96.074,5.17 94.776,6.314 L95.832,8.184 C96.734,7.348 97.79,6.93 98.934,6.93 C100.342,6.93 101.266,7.634 101.266,8.712 L101.266,10.186 C100.562,9.328 99.308,8.888 97.9,8.888 C96.206,8.888 94.204,9.79 94.204,12.276 C94.204,14.652 96.206,15.796 97.9,15.796 C99.286,15.796 100.54,15.29 101.266,14.432 L101.266,15.532 Z M101.266,12.98 C100.804,13.596 99.924,13.904 99.022,13.904 C97.922,13.904 97.02,13.332 97.02,12.342 C97.02,11.308 97.922,10.736 99.022,10.736 C99.924,10.736 100.804,11.044 101.266,11.66 L101.266,12.98 Z" id="Shape"></path><path d="M114.136,15.532 L116.952,15.532 L116.952,0.858 L114.136,0.858 L114.136,6.27 C113.3,5.192 112.112,4.642 110.858,4.642 C108.152,4.642 106.15,6.754 106.15,10.23 C106.15,13.772 108.174,15.796 110.858,15.796 C112.134,15.796 113.3,15.224 114.136,14.168 L114.136,15.532 Z M114.136,12.1 C113.674,12.804 112.662,13.31 111.716,13.31 C110.132,13.31 109.032,12.056 109.032,10.23 C109.032,8.382 110.132,7.128 111.716,7.128 C112.662,7.128 113.674,7.634 114.136,8.338 L114.136,12.1 Z" id="Shape"></path></g><g id="Icons" transform="translate(7.000000, 6.000000)"><g id="Group-Copy-5" transform="translate(211.000000, 369.000000)"><mask id="mask-14" fill="white"><use xlink:href="#path-13"></use></mask><use id="Mask" fill="#FFFFFF" xlink:href="#path-13"></use><g id="Group-33" mask="url(#mask-14)"><g transform="translate(9.000000, 9.000000)"><path d="M29.3765182,15.9123377 L1.07695127,15.9123377 C0.482731627,15.9123377 0,15.436053 0,14.8485027 L0,11.886341 C0,11.2993584 0.482731627,10.822506 1.07695127,10.822506 L29.3765182,10.822506 C29.9707379,10.822506 30.4534695,11.2993584 30.4534695,11.886341 L30.4534695,14.8485027 C30.4534695,15.436053 29.9707379,15.9123377 29.3765182,15.9123377 Z" id="Stroke-1" stroke="#2E2D2C" stroke-width="1.17705" fill="none" stroke-linecap="round" stroke-linejoin="round"></path><line x1="13.5902171" y1="0.450228147" x2="7.80835648" y2="13.3678192" id="Stroke-3" stroke="#FFFFFF" stroke-width="3.53058" fill="none" stroke-linecap="round" stroke-linejoin="round"></line><line x1="22.8535497" y1="13.3677624" x2="17.0716891" y2="0.450171378" id="Stroke-5" stroke="#FFFFFF" stroke-width="3.53058" fill="none" stroke-linecap="round" stroke-linejoin="round"></line><path d="M24.4479433,30.082234 L6.00529638,30.082234 C5.37831994,30.082234 4.84329239,29.6360364 4.73755118,29.0257789 L2.47790742,15.9123377 L27.9759069,15.9123377 L25.7156885,29.0257789 C25.6099473,29.6360364 25.0749197,30.082234 24.4479433,30.082234 Z" id="Stroke-7" stroke="#2E2D2C" stroke-width="1.17705" fill="none" stroke-linecap="round" stroke-linejoin="round"></path><line x1="21.3567943" y1="18.746317" x2="20.6246513" y2="27.2484818" id="Stroke-9" stroke="#2E2D2C" stroke-width="1.17705" fill="none" stroke-linecap="round" stroke-linejoin="round"></line><line x1="15.2266773" y1="18.746317" x2="15.2266773" y2="27.2484818" id="Stroke-11" stroke="#2E2D2C" stroke-width="1.17705" fill="none" stroke-linecap="round" stroke-linejoin="round"></line><line x1="9.0965603" y1="18.746317" x2="9.82870327" y2="27.2484818" id="Stroke-13" stroke="#2E2D2C" stroke-width="1.17705" fill="none" stroke-linecap="round" stroke-linejoin="round"></line><line x1="13.5902171" y1="5.67681436e-05" x2="7.80835648" y2="13.3678192" id="Stroke-15" stroke="#2E2D2C" stroke-width="0.99522" fill="none" stroke-linecap="round" stroke-linejoin="round"></line><line x1="22.8535497" y1="13.3677624" x2="17.0716891" y2="0" id="Stroke-17" stroke="#2E2D2C" stroke-width="0.99522" fill="none" stroke-linecap="round" stroke-linejoin="round"></line><line x1="6.73387633" y1="13.3677624" x2="8.88260675" y2="13.3677624" id="Stroke-19" stroke="#2E2D2C" stroke-width="1.17705" fill="none" stroke-linecap="round" stroke-linejoin="round"></line><line x1="21.7794143" y1="13.3677624" x2="23.9281447" y2="13.3677624" id="Stroke-21" stroke="#2E2D2C" stroke-width="1.17705" fill="none" stroke-linecap="round" stroke-linejoin="round"></line><path d="M37,30.082234 C37,33.9021624 33.8651178,37 29.997518,37 C26.1299182,37 22.995036,33.9021624 22.995036,30.082234 C22.995036,26.2623056 26.1299182,23.1650357 29.997518,23.1650357 C33.8651178,23.1650357 37,26.2623056 37,30.082234" id="Fill-23" stroke="none" fill="#FFFFFF" fill-rule="evenodd"></path><path d="M37,30.082234 C37,33.9021624 33.8651178,37 29.997518,37 C26.1299182,37 22.995036,33.9021624 22.995036,30.082234 C22.995036,26.2623056 26.1299182,23.1650357 29.997518,23.1650357 C33.8651178,23.1650357 37,26.2623056 37,30.082234 Z" id="Stroke-25" stroke="#FFFFFF" stroke-width="3.53058" fill="none" stroke-linecap="round" stroke-linejoin="round"></path><line x1="26.4834616" y1="30.082234" x2="33.5112296" y2="30.082234" id="Stroke-27" stroke="#2E2D2C" stroke-width="1.17705" fill="none" stroke-linecap="round" stroke-linejoin="round"></line><line x1="29.9978053" y1="33.5537195" x2="29.9978053" y2="26.6115433" id="Stroke-29" stroke="#2E2D2C" stroke-width="1.17705" fill="none" stroke-linecap="round" stroke-linejoin="round"></line><path d="M37,30.082234 C37,33.9021624 33.8651178,37 29.997518,37 C26.1299182,37 22.995036,33.9021624 22.995036,30.082234 C22.995036,26.2623056 26.1299182,23.1650357 29.997518,23.1650357 C33.8651178,23.1650357 37,26.2623056 37,30.082234 Z" id="Stroke-31" stroke="#2E2D2C" stroke-width="1.17705" fill="none" stroke-linecap="round" stroke-linejoin="round"></path></g></g></g><g id="Group-Copy-4" transform="translate(170.000000, 295.000000)"><mask id="mask-16" fill="white"><use xlink:href="#path-15"></use></mask><use id="Mask" fill="#FFFFFF" xlink:href="#path-15"></use><g id="Group-15" mask="url(#mask-16)" stroke-linecap="round" stroke-linejoin="round"><g transform="translate(9.000000, 14.000000)"><path d="M0,0.537224174 L5.2594848,0.537224174 C6.29469479,0.537224174 7.20629762,1.22371777 7.50295482,2.22613373 L13.6292349,22.9427304 C13.7605675,23.3861667 14.1648659,23.6906388 14.6237575,23.6906388 L31.3560472,23.6906388" id="Stroke-1" stroke="#2E2D2C" stroke-width="1.0789625"></path><path d="M16.91049,28.4715801 C16.91049,29.8685087 15.7897851,31 14.40796,31 C13.0256199,31 11.9049149,29.8685087 11.9049149,28.4715801 C11.9049149,27.0746515 13.0256199,25.9426397 14.40796,25.9426397 C15.7897851,25.9426397 16.91049,27.0746515 16.91049,28.4715801 Z" id="Stroke-3" stroke="#2E2D2C" stroke-width="1.0789625"></path><path d="M31.3559442,28.4715801 C31.3559442,29.8685087 30.2357542,31 28.8539292,31 C27.4715891,31 26.3508841,29.8685087 26.3508841,28.4715801 C26.3508841,27.0746515 27.4715891,25.9426397 28.8539292,25.9426397 C30.2357542,25.9426397 31.3559442,27.0746515 31.3559442,28.4715801 Z" id="Stroke-5" stroke="#2E2D2C" stroke-width="1.0789625"></path><path d="M10.6013744,5.16806325 L31.9699627,5.16806325 C32.6590727,5.16806325 33.1535013,5.83842242 32.9562449,6.50513833 L29.5658034,17.972548 C29.3752424,18.6179248 28.7881083,19.0597998 28.1211447,19.0597998 L12.4812333,19.0597998" id="Stroke-7" stroke="#2E2D2C" stroke-width="1.0789625"></path><line x1="20.8632411" y1="0.537224174" x2="20.8632411" y2="9.85407163" id="Stroke-9" stroke="#FFFFFF" stroke-width="3.236365"></line><line x1="20.8632411" y1="0" x2="20.8632411" y2="14.1530101" id="Stroke-11" stroke="#2E2D2C" stroke-width="1.0789625"></line><polyline id="Stroke-13" stroke="#2E2D2C" stroke-width="1.0789625" points="24.622856 10.3534059 20.8631381 14.1533223 17.1034202 10.3534059"></polyline></g></g></g><g id="Group-Copy-3" transform="translate(128.000000, 221.000000)"><mask id="mask-18" fill="white"><use xlink:href="#path-17"></use></mask><use id="Mask" fill="#FFFFFF" xlink:href="#path-17"></use><g id="Group-23" mask="url(#mask-18)" stroke-linecap="round" stroke-linejoin="round"><g transform="translate(11.000000, 11.000000)"><path d="M31.8641722,17.4558057 L1.13582778,17.4558057 C0.508457201,17.4558057 0,16.9473548 0,16.3194794 L0,13.0083981 C0,12.3810353 0.508457201,11.8720719 1.13582778,11.8720719 L31.8641722,11.8720719 C32.4915428,11.8720719 33,12.3810353 33,13.0083981 L33,16.3194794 C33,16.9473548 32.4915428,17.4558057 31.8641722,17.4558057 Z" id="Stroke-1" stroke="#2E2D2C" stroke-width="1.0789625"></path><line x1="14.7264992" y1="0" x2="8.46099436" y2="14.66358" id="Stroke-3" stroke="#FFFFFF" stroke-width="3.236365"></line><line x1="24.7649411" y1="14.663785" x2="18.4994362" y2="0.000205020518" id="Stroke-5" stroke="#FFFFFF" stroke-width="3.236365"></line><path d="M26.4928242,33 L6.50717581,33 C5.8280369,33 5.24782163,32.510001 5.13352127,31.8400964 L2.68452076,17.4558569 L30.3154792,17.4558569 L27.8664787,31.8400964 C27.7521784,32.510001 27.1719631,33 26.4928242,33 Z" id="Stroke-7" stroke="#2E2D2C" stroke-width="1.0789625"></path><line x1="23.1431574" y1="20.5646343" x2="22.3492055" y2="29.8910176" id="Stroke-9" stroke="#2E2D2C" stroke-width="1.0789625"></line><line x1="16.4999487" y1="20.5646343" x2="16.4999487" y2="29.8910176" id="Stroke-11" stroke="#2E2D2C" stroke-width="1.0789625"></line><line x1="9.85668888" y1="20.5646343" x2="10.6511533" y2="29.8910176" id="Stroke-13" stroke="#2E2D2C" stroke-width="1.0789625"></line><line x1="14.7264992" y1="0" x2="8.46099436" y2="14.66358" id="Stroke-15" stroke="#2E2D2C" stroke-width="1.0789625"></line><line x1="24.7649411" y1="14.663785" x2="18.4994362" y2="0.000205020518" id="Stroke-17" stroke="#2E2D2C" stroke-width="1.0789625"></line><line x1="7.29692465" y1="14.663785" x2="9.62547412" y2="14.663785" id="Stroke-19" stroke="#2E2D2C" stroke-width="1.0789625"></line><line x1="23.6006663" y1="14.663785" x2="25.9292158" y2="14.663785" id="Stroke-21" stroke="#2E2D2C" stroke-width="1.0789625"></line></g></g></g><g id="Group-Copy-2" transform="translate(84.000000, 146.000000)"><mask id="mask-20" fill="white"><use xlink:href="#path-19"></use></mask><use id="Mask" fill="#FFFFFF" xlink:href="#path-19"></use><g id="Group-10" mask="url(#mask-20)" stroke="#2E2D2C" stroke-linecap="round" stroke-linejoin="round"><g transform="translate(10.000000, 14.000000)"><polygon id="Stroke-1" stroke-width="1.0325" points="15.6826548 29.750718 20.318556 29.750718 20.318556 25.3587734 15.6826548 25.3587734"></polygon><line x1="24.0837815" y1="29.7509671" x2="11.9161175" y2="29.7509671" id="Stroke-3" stroke-width="1.0325"></line><path d="M36,23.0270782 C36,24.3095977 34.9370069,25.3590225 33.6379052,25.3590225 L2.36209482,25.3590225 C1.06299312,25.3590225 0,24.3095977 0,23.0270782 L0,2.33194428 C0,1.04942473 1.06299312,0 2.36209482,0 L33.6379052,0 C34.9370069,0 36,1.04942473 36,2.33194428 L36,23.0270782 Z" id="Stroke-4" stroke-width="1.0325"></path><line x1="36" y1="21.4815799" x2="0" y2="21.4815799" id="Stroke-5" stroke-width="1.0325"></line><path d="M7.26094427,3.27343815 L9.32386732,3.27343815 C10.0947517,3.27343815 10.7738162,3.77250012 10.9942851,4.50166852 L13.683804,13.3861671 C13.8174979,13.8274534 14.2286699,14.1297794 14.6953375,14.1297794 L22.5065964,14.1297794" id="Stroke-6" stroke-width="1.0325"></path><polyline id="Stroke-7" stroke-width="1.0325" points="13.5884524 6.04831239 23.611968 6.04831239 21.917334 11.589793 13.3583979 11.589793"></polyline><path d="M15.9991311,16.976126 C15.9991311,17.6958312 15.4083552,18.2795644 14.6788402,18.2795644 C13.9498297,18.2795644 13.3585493,17.6958312 13.3585493,16.976126 C13.3585493,16.2564209 13.9498297,15.6726877 14.6788402,15.6726877 C15.4083552,15.6726877 15.9991311,16.2564209 15.9991311,16.976126 Z" id="Stroke-8" stroke-width="0.929"></path><path d="M22.6545174,16.976126 C22.6545174,17.6958312 22.0637415,18.2795644 21.3342265,18.2795644 C20.605216,18.2795644 20.0139356,17.6958312 20.0139356,16.976126 C20.0139356,16.2564209 20.605216,15.6726877 21.3342265,15.6726877 C22.0637415,15.6726877 22.6545174,16.2564209 22.6545174,16.976126 Z" id="Stroke-9" stroke-width="0.929"></path></g></g></g><g id="Group-Copy" transform="translate(42.000000, 74.000000)"><mask id="mask-22" fill="white"><use xlink:href="#path-21"></use></mask><use id="Mask" fill="#FFFFFF" xlink:href="#path-21"></use><g id="Group-12" mask="url(#mask-22)"><g transform="translate(12.000000, 11.000000)"><path d="M27.7513856,32.4872622 L4.26374146,32.4872622 C3.69647733,32.4917003 3.23442372,32.0218893 3.23442372,31.4408334 L3.23442372,10.1637596 C3.23442372,9.58618017 3.69162891,9.11736245 4.255984,9.11736245 L27.7436281,9.11736245 C28.3079832,9.11736245 28.7651884,9.58618017 28.7651884,10.1637596 L28.7651884,31.4408334 C28.7651884,32.0159297 28.3128316,32.482761 27.7513856,32.4872622 Z" id="Stroke-1" stroke="#2E2D2C" stroke-width="1.022175" fill="none" stroke-linecap="round" stroke-linejoin="round"></path><path d="M30.3902789,16.2381276 L1.6096241,16.2381276 C0.996784897,16.2381276 0.500792412,15.7295795 0.500792412,15.1018405 L0.500792412,10.2532522 C0.500792412,9.62650644 0.996784897,9.11746177 1.6096241,9.11746177 L30.3902789,9.11746177 C31.0026333,9.11746177 31.4995955,9.62650644 31.4995955,10.2532522 L31.4995955,15.1018405 C31.4995955,15.7295795 31.0026333,16.2381276 30.3902789,16.2381276" id="Fill-3" stroke="none" fill="#FFFFFF" fill-rule="evenodd"></path><path d="M30.3902789,16.2381276 L1.6096241,16.2381276 C0.996784897,16.2381276 0.500792412,15.7295795 0.500792412,15.1018405 L0.500792412,10.2532522 C0.500792412,9.62650644 0.996784897,9.11746177 1.6096241,9.11746177 L30.3902789,9.11746177 C31.0026333,9.11746177 31.4995955,9.62650644 31.4995955,10.2532522 L31.4995955,15.1018405 C31.4995955,15.7295795 31.0026333,16.2381276 30.3902789,16.2381276 Z" id="Stroke-5" stroke="#2E2D2C" stroke-width="1.022175" fill="none" stroke-linecap="round" stroke-linejoin="round"></path><mask id="mask-24" fill="white"><use xlink:href="#path-23"></use></mask><g id="Clip-8" stroke="none" fill="none"></g><polygon id="Fill-7" stroke="none" fill="#FFFFFF" fill-rule="evenodd" mask="url(#mask-24)" points="13.5188255 32.4869823 18.4811745 32.4869823 18.4811745 9.11711413 13.5188255 9.11711413"></polygon><polygon id="Stroke-9" stroke="#2E2D2C" stroke-width="1.022175" fill="none" stroke-linecap="round" stroke-linejoin="round" mask="url(#mask-24)" points="13.5188255 32.4869823 18.4811745 32.4869823 18.4811745 9.11711413 13.5188255 9.11711413"></polygon><path d="M8.26726868,1.1966771 C9.33488887,0.103100169 11.1578915,0.197459668 13.2936168,2.38511016 C15.4288571,4.57226403 16,9.11741211 16,9.11741211 C16,9.11741211 11.5622491,8.53238322 9.42700868,6.34522935 C7.29176831,4.15807549 7.19964849,2.29025403 8.26726868,1.1966771 Z" id="Stroke-10" stroke="#2E2D2C" stroke-width="1.022175" fill="none" stroke-linecap="round" stroke-linejoin="round" mask="url(#mask-24)"></path><path d="M23.7327313,1.1966771 C22.6651111,0.103100169 20.8416236,0.197459668 18.7063832,2.38511016 C16.5711429,4.57226403 16,9.11741211 16,9.11741211 C16,9.11741211 20.4372661,8.53238322 22.5725065,6.34522935 C24.7082317,4.15807549 24.8003515,2.29025403 23.7327313,1.1966771 Z" id="Stroke-11" stroke="#2E2D2C" stroke-width="1.022175" fill="none" stroke-linecap="round" stroke-linejoin="round" mask="url(#mask-24)"></path></g></g></g><g id="Group"><mask id="mask-26" fill="white"><use xlink:href="#path-25"></use></mask><use id="Mask" fill="#FFFFFF" xlink:href="#path-25"></use><g id="Group-27" mask="url(#mask-26)" fill="#2E2D2C"><g transform="translate(8.000000, 11.000000)"><path d="M6.5130322,23 C6.38801745,23 6.26394622,22.946845 6.16865196,22.8410613 C4.77037386,21.2806206 4,19.2065238 4,16.9998026 C4,14.7936078 4.77037386,12.7189847 6.16865196,11.1590702 C6.35924048,10.9469766 6.66682392,10.9469766 6.85741243,11.1590702 C7.04752919,11.3711639 7.04752919,11.7153555 6.85741243,11.9274492 C5.64264654,13.282638 4.97369973,15.0835919 4.97369973,16.9998026 C4.97369973,18.9160134 5.64264654,20.7180198 6.85741243,22.0726824 C7.04752919,22.2847761 7.04752919,22.6284414 6.85741243,22.8410613 C6.76211817,22.946845 6.63804694,23 6.5130322,23" id="Fill-1"></path><path d="M3.52006509,26 C3.39685584,26 3.27457647,25.9489539 3.18065847,25.8473671 C1.12934066,23.6175109 0,20.6532982 0,17.5000632 C0,14.3468282 1.12934066,11.3826155 3.18065847,9.1527593 C3.36849446,8.94908023 3.67163572,8.94908023 3.85947171,9.1527593 C4.04684276,9.35643837 4.04684276,9.68697462 3.85947171,9.89065368 C1.98948072,11.9228957 0.959637346,14.6258129 0.959637346,17.5000632 C0.959637346,20.3743134 1.98948072,23.0767253 3.85947171,25.1094727 C4.04684276,25.3131517 4.04684276,25.6431826 3.85947171,25.8473671 C3.76555372,25.9489539 3.64327434,26 3.52006509,26" id="Fill-3"></path><path d="M31.4869678,23 C31.3619531,23 31.2378818,22.946845 31.1425876,22.8410613 C30.9524708,22.6284414 30.9524708,22.2847761 31.1425876,22.0726824 C32.3573535,20.7180198 33.0263003,18.9160134 33.0263003,16.9998026 C33.0263003,15.0835919 32.3573535,13.282638 31.1425876,11.9274492 C30.9524708,11.7153555 30.9524708,11.3711639 31.1425876,11.1590702 C31.3331761,10.9469766 31.6407595,10.9469766 31.831348,11.1590702 C33.2296261,12.7189847 34,14.7936078 34,16.9998026 C34,19.2065238 33.2296261,21.2806206 31.831348,22.8410613 C31.7360538,22.946845 31.6119825,23 31.4869678,23" id="Fill-5"></path><path d="M34.4799349,26 C34.3567257,26 34.2344463,25.9489539 34.1405283,25.8473671 C33.9531572,25.6431826 33.9531572,25.3131517 34.1405283,25.1094727 C36.0105193,23.0767253 37.0403627,20.3743134 37.0403627,17.5000632 C37.0403627,14.6258129 36.0105193,11.9228957 34.1405283,9.89065368 C33.9531572,9.68697462 33.9531572,9.35643837 34.1405283,9.1527593 C34.3283643,8.94908023 34.6315055,8.94908023 34.8193415,9.1527593 C36.8706593,11.3826155 38,14.3468282 38,17.5000632 C38,20.6532982 36.8706593,23.6175109 34.8193415,25.8473671 C34.7254235,25.9489539 34.6031442,26 34.4799349,26" id="Fill-7"></path><path d="M12.526429,1.05611992 C11.1650277,1.05611992 10.0576726,2.16289674 10.0576726,3.52295815 L10.0576726,30.4770419 C10.0576726,31.8371033 11.1650277,32.9438801 12.526429,32.9438801 L25.473571,32.9438801 C26.8354845,32.9438801 27.9428396,31.8371033 27.9428396,30.4770419 L27.9428396,3.52295815 C27.9428396,2.16289674 26.8354845,1.05611992 25.473571,1.05611992 L12.526429,1.05611992 Z M25.473571,34 L12.526429,34 C10.5821553,34 9,32.4199136 9,30.4770419 L9,3.52295815 C9,1.58008638 10.5821553,0 12.526429,0 L25.473571,0 C27.4178447,0 29,1.58008638 29,3.52295815 L29,30.4770419 C29,32.4199136 27.4178447,34 25.473571,34 L25.473571,34 Z" id="Fill-9"></path><path d="M28.4714198,29 L9.5290924,29 C9.23663184,29 9,28.7761628 9,28.5 C9,28.2233527 9.23663184,28 9.5290924,28 L28.4714198,28 C28.7633682,28 29,28.2233527 29,28.5 C29,28.7761628 28.7633682,29 28.4714198,29" id="Fill-11"></path><path d="M28.4714198,6 L9.5290924,6 C9.23663184,6 9,5.77616279 9,5.5 C9,5.22335271 9.23663184,5 9.5290924,5 L28.4714198,5 C28.7633682,5 29,5.22335271 29,5.5 C29,5.77616279 28.7633682,6 28.4714198,6" id="Fill-13"></path><path d="M21.5050834,32 L17.4953961,32 C17.2215615,32 17,31.7761628 17,31.5 C17,31.2233527 17.2215615,31 17.4953961,31 L21.5050834,31 C21.7784385,31 22,31.2233527 22,31.5 C22,31.7761628 21.7784385,32 21.5050834,32" id="Fill-15"></path><path d="M20,2.99931601 C20,3.55198358 19.5531261,4 19.0010249,4 C18.4482405,4 18,3.55198358 18,2.99931601 C18,2.44664843 18.4482405,2 19.0010249,2 C19.5531261,2 20,2.44664843 20,2.99931601" id="Fill-17"></path><path d="M22.4835481,20 L17.0437883,20 C16.4722883,20 15.9598399,19.6268543 15.7966971,19.0918329 L13.7974478,12.553225 C13.6973602,12.2284954 13.3975979,12.0098897 13.0497936,12.0098897 L11.5164519,12.0098897 C11.2312023,12.0098897 11,11.7839483 11,11.5047003 C11,11.2259414 11.2312023,11 11.5164519,11 L13.0497936,11 C13.8580008,11 14.5556112,11.5081237 14.7873139,12.2641961 L16.7865632,18.8032929 C16.820593,18.9133293 16.9261854,18.9905994 17.0437883,18.9905994 L22.4835481,18.9905994 C22.7687977,18.9905994 23,19.2160517 23,19.4952997 C23,19.7740586 22.7687977,20 22.4835481,20" id="Fill-19"></path><path d="M23.1528444,18 L16.5369316,18 C16.2403705,18 16,17.77797 16,17.5040369 C16,17.2296232 16.2403705,17.0080738 16.5369316,17.0080738 L22.7537876,17.0080738 L23.7397231,13.9924068 L17.2824965,13.9924068 C16.9854151,13.9924068 16.7455649,13.7703768 16.7455649,13.4959631 C16.7455649,13.22203 16.9854151,13 17.2824965,13 L24.4629158,13 C24.6330482,13 24.7922546,13.07401 24.89423,13.2004037 C24.9951648,13.3263168 25.0263818,13.4892349 24.9769549,13.6396578 L23.6668835,17.6472511 C23.5982062,17.8567859 23.3895729,18 23.1528444,18" id="Fill-21"></path><path d="M18,22.0002549 C18,22.5523834 17.5523834,23 16.9997451,23 C16.4476166,23 16,22.5523834 16,22.0002549 C16,21.4481264 16.4476166,21 16.9997451,21 C17.5523834,21 18,21.4481264 18,22.0002549" id="Fill-23"></path><path d="M23,22.0002549 C23,22.5523834 22.5523834,23 22.0002549,23 C21.4476166,23 21,22.5523834 21,22.0002549 C21,21.4481264 21.4476166,21 22.0002549,21 C22.5523834,21 23,21.4481264 23,22.0002549" id="Fill-25"></path></g></g></g></g></g></g></g></svg> 