<svg width="202" height="32" viewBox="0 0 202 32" fill="none" xmlns="http://www.w3.org/2000/svg">
<path d="M23.9981 8.2245C24.3665 5.87297 23.995 4.27368 22.7234 2.82438C21.3227 1.22898 18.7927 0.545898 15.5561 0.545898H6.16049C5.49904 0.545898 4.93552 1.02693 4.83292 1.6797L0.920137 26.4842C0.843187 26.9738 1.22094 27.4167 1.71684 27.4167H7.51761L7.11731 29.9548C7.04969 30.3829 7.38003 30.7699 7.81375 30.7699H12.7028C13.2818 30.7699 13.7746 30.3487 13.8648 29.7776L13.9122 29.5289L14.8333 23.6897L14.8931 23.3672C14.9833 22.7953 15.4761 22.3748 16.0544 22.3748H16.7858C21.5225 22.3748 25.2316 20.4507 26.3151 14.8866C26.7675 12.5615 26.5335 10.6211 25.3365 9.2565C24.9743 8.84385 24.5235 8.5027 23.9981 8.2245Z" fill="#019CDE"/>
<path d="M23.9981 8.2245C24.3665 5.87297 23.995 4.27368 22.7234 2.82438C21.3227 1.22898 18.7927 0.545898 15.5561 0.545898H6.16049C5.49904 0.545898 4.93552 1.02693 4.83292 1.6797L0.920137 26.4842C0.843187 26.9738 1.22094 27.4167 1.71684 27.4167H7.51761L8.97421 18.1792L8.92913 18.4683C9.03251 17.8156 9.59059 17.3338 10.252 17.3338H13.009C18.4235 17.3338 22.6627 15.1345 23.9017 8.77469C23.9382 8.58663 23.9701 8.40401 23.9981 8.2245Z" fill="#012269"/>
<path d="M10.5396 8.25558C10.6018 7.86237 10.8537 7.54064 11.1933 7.37823C11.348 7.3044 11.5206 7.26322 11.7009 7.26322H19.0663C19.9392 7.26322 20.7522 7.31995 21.496 7.43962C21.7082 7.47381 21.9158 7.51345 22.1163 7.55852C22.3176 7.60281 22.5119 7.65255 22.7008 7.70772C22.7956 7.73492 22.8881 7.76445 22.9799 7.79476C23.3452 7.91599 23.6848 8.05898 23.9981 8.2245C24.3665 5.87297 23.995 4.27368 22.7234 2.82438C21.3227 1.22898 18.7927 0.545898 15.5561 0.545898H6.16049C5.49904 0.545898 4.93552 1.02693 4.83292 1.6797L0.920137 26.4842C0.843187 26.9738 1.22094 27.4167 1.71684 27.4167H7.51761L8.97421 18.1792L10.5396 8.25558Z" fill="#013088"/>
<path fill-rule="evenodd" clip-rule="evenodd" d="M134.992 14.9125C135.231 15.1574 135.643 15.0354 135.698 14.6991L136.356 10.6283C136.418 10.2458 136.202 9.87262 135.839 9.73599C134.718 9.31451 133.574 9.14529 132.296 9.07487C128.33 8.85415 121.862 10.6809 120.73 18.65C120.328 21.4932 121.58 28.179 129.409 28.179C130.755 28.179 131.859 27.8752 133.297 27.4527C133.538 27.3822 133.717 27.1804 133.757 26.9324L134.429 22.7776C134.488 22.4191 134.083 22.1648 133.788 22.3771C132.721 23.1465 131.437 23.6068 130.227 23.6068C127.29 23.6068 125.654 21.5383 126.088 18.6742C126.544 15.8595 128.831 13.6459 131.718 13.6459C132.997 13.6459 134.184 14.0842 134.992 14.9125ZM194.549 27.6975H190.846C190.609 27.6975 190.428 27.4852 190.465 27.2508L192.634 13.5366H189.183C188.947 13.5366 188.765 13.3253 188.802 13.0909L189.27 10.0985C189.321 9.77587 189.598 9.53833 189.925 9.53833H201.432C201.669 9.53833 201.85 9.75064 201.813 9.98503L201.344 12.9764C201.294 13.299 201.016 13.5366 200.691 13.5366H197.355L195.203 27.1383C195.152 27.46 194.875 27.6975 194.549 27.6975ZM142.152 17.679H141.694L142.362 13.4968C142.393 13.2982 142.565 13.151 142.767 13.151H143.435C145.083 13.1573 146.111 13.4411 145.789 15.415C145.466 17.3889 143.693 17.679 142.152 17.679ZM144.946 27.6977H149.798C150.099 27.6977 150.285 27.3677 150.129 27.1101L145.957 20.2562C148.607 19.7979 150.341 17.6306 150.75 15.126C151.353 11.2486 148.896 9.53851 145.307 9.53851H138.708C138.444 9.53851 138.219 9.73086 138.178 9.99152L135.454 27.251C135.417 27.4854 135.598 27.6977 135.836 27.6977H139.646C139.91 27.6977 140.135 27.5053 140.176 27.2457L141.213 20.7134H141.26L144.462 27.3929C144.552 27.5789 144.74 27.6977 144.946 27.6977ZM157.499 16.5712L157.892 14.0959C157.944 13.7732 158.222 13.5367 158.547 13.5367H163.027C163.353 13.5367 163.631 13.2992 163.681 12.9765L164.15 9.98521C164.187 9.75083 164.006 9.53851 163.768 9.53851H154.453C154.127 9.53851 153.849 9.77605 153.799 10.0977L151.091 27.251C151.054 27.4854 151.235 27.6977 151.472 27.6977H160.787C161.113 27.6977 161.391 27.4602 161.442 27.1375L161.909 24.1462C161.946 23.9118 161.765 23.6995 161.528 23.6995H156.368L156.783 21.1254C156.835 20.8048 157.112 20.5694 157.437 20.5694H161.63C161.956 20.5694 162.234 20.3319 162.285 20.0092L162.753 17.0179C162.789 16.7835 162.609 16.5712 162.371 16.5712H157.499ZM169.458 23.6995H168.399L169.961 13.8626C169.99 13.6755 170.152 13.5368 170.342 13.5368H171.12C174.155 13.5368 176.01 15.3667 175.504 18.6186C174.926 22.1586 172.277 23.6995 169.458 23.6995ZM166.484 9.53852C166.157 9.53852 165.881 9.77606 165.829 10.0977L163.122 27.251C163.084 27.4854 163.266 27.6977 163.504 27.6977H169.747C174.782 27.6977 179.599 23.7236 180.418 18.6186C181.213 13.5126 177.672 9.53852 172.614 9.53852H166.484ZM184.542 27.6977H180.84C180.602 27.6977 180.421 27.4854 180.458 27.251L183.166 10.0977C183.216 9.77605 183.494 9.53851 183.82 9.53851H187.522C187.76 9.53851 187.942 9.75083 187.904 9.98521L185.197 27.1385C185.146 27.4602 184.869 27.6977 184.542 27.6977Z" fill="#013088"/>
<path fill-rule="evenodd" clip-rule="evenodd" d="M41.6326 15.2171C41.2742 17.5787 39.47 17.5787 37.7267 17.5787H36.7342L37.4292 13.1716C37.4714 12.9045 37.7014 12.7084 37.9719 12.7084H38.4268C39.6137 12.7084 40.7348 12.7084 41.313 13.3846C41.6597 13.7886 41.7645 14.3887 41.6326 15.2171ZM40.8734 9.05859H34.296C33.8462 9.05859 33.4641 9.38655 33.3931 9.83115L30.7334 26.6922C30.681 27.0252 30.938 27.3261 31.2744 27.3261H34.416C34.8658 27.3261 35.2479 26.9999 35.319 26.5553L36.0359 22.0061C36.1069 21.5615 36.489 21.2353 36.9388 21.2353H39.0202C43.3522 21.2353 45.853 19.139 46.5073 14.9838C46.8016 13.1665 46.5192 11.738 45.6687 10.739C44.7319 9.64013 43.0749 9.05859 40.8734 9.05859ZM56.1432 21.2708C55.8389 23.0712 54.4101 24.2782 52.5873 24.2782C51.6743 24.2782 50.9421 23.9858 50.4721 23.4279C50.0071 22.8768 49.8313 22.0924 49.9801 21.2167C50.2624 19.4332 51.7149 18.1873 53.5089 18.1873C54.4033 18.1873 55.1304 18.4832 55.6089 19.0444C56.0925 19.6107 56.2819 20.4002 56.1432 21.2708ZM60.5327 15.1427H57.3826C57.1138 15.1427 56.8838 15.3388 56.8415 15.6042L56.7029 16.485L56.4831 16.1672C55.8 15.1766 54.2799 14.8452 52.7615 14.8452C49.2817 14.8452 46.3092 17.4824 45.7309 21.1795C45.43 23.0255 45.8577 24.787 46.9044 26.0177C47.8648 27.1487 49.2361 27.6186 50.8711 27.6186C53.6763 27.6186 55.2318 25.8166 55.2318 25.8166L55.0898 26.6922C55.0374 27.0253 55.2944 27.3262 55.6326 27.3262H58.4681C58.9179 27.3262 59.3017 26.9999 59.3711 26.5553L61.0737 15.775C61.1262 15.4437 60.8692 15.1427 60.5327 15.1427ZM74.1469 15.1426H77.3139C77.7552 15.1426 78.0156 15.6396 77.7636 16.003L67.2347 31.1939C67.0639 31.4407 66.7832 31.5878 66.484 31.5878H63.3204C62.8757 31.5878 62.617 31.0857 62.874 30.7222L66.1526 26.097L62.666 15.8678C62.546 15.5111 62.8097 15.1426 63.1851 15.1426H66.298C66.7021 15.1426 67.0572 15.408 67.1738 15.7934L69.0236 21.9739L73.3911 15.5432C73.5619 15.293 73.8443 15.1426 74.1469 15.1426Z" fill="#013088"/>
<path fill-rule="evenodd" clip-rule="evenodd" d="M88.5428 15.2171C88.1843 17.5787 86.3802 17.5787 84.6352 17.5787H83.6444L84.3393 13.1716C84.3816 12.9045 84.6115 12.7084 84.8821 12.7084H85.3369C86.5239 12.7084 87.6449 12.7084 88.2232 13.3846C88.5698 13.7886 88.6747 14.3887 88.5428 15.2171ZM87.7836 9.05859H81.2062C80.7564 9.05859 80.3743 9.38655 80.3032 9.83115L77.6435 26.6922C77.5911 27.0252 77.8481 27.3261 78.1846 27.3261H81.5595C81.874 27.3261 82.1429 27.0979 82.1919 26.7869L82.946 22.0061C83.0171 21.5615 83.3992 21.2353 83.849 21.2353H85.9304C90.2624 21.2353 92.7631 19.139 93.4175 14.9838C93.7117 13.1665 93.4293 11.738 92.5788 10.739C91.6421 9.64013 89.9851 9.05859 87.7836 9.05859ZM103.053 21.2708C102.749 23.0712 101.32 24.2782 99.4975 24.2782C98.5845 24.2782 97.8523 23.9858 97.3823 23.4279C96.9173 22.8768 96.7414 22.0924 96.8902 21.2167C97.1726 19.4332 98.625 18.1873 100.419 18.1873C101.313 18.1873 102.041 18.4832 102.519 19.0444C103.001 19.6107 103.192 20.4002 103.053 21.2708ZM107.443 15.1427H104.293C104.022 15.1427 103.794 15.3388 103.752 15.6042L103.613 16.485L103.393 16.1672C102.71 15.1766 101.19 14.8452 99.6717 14.8452C96.1919 14.8452 93.2194 17.4824 92.6411 21.1795C92.3401 23.0255 92.7679 24.787 93.8129 26.0177C94.775 27.1487 96.1462 27.6186 97.7813 27.6186C100.586 27.6186 102.142 25.8166 102.142 25.8166L102 26.6922C101.948 27.0253 102.206 27.3262 102.543 27.3262H105.378C105.828 27.3262 106.212 26.9999 106.281 26.5553L107.984 15.775C108.036 15.4437 107.779 15.1427 107.443 15.1427ZM108.46 26.6939L111.16 9.52179C111.201 9.25469 111.431 9.05859 111.701 9.05859H114.74C115.076 9.05859 115.333 9.3595 115.281 9.69253L112.619 26.5553C112.55 26.9999 112.166 27.3261 111.717 27.3261H109.001C108.665 27.3261 108.408 27.0269 108.46 26.6939Z" fill="#019CDE"/>
</svg>
